<?xml version="1.0" encoding="UTF-8" standalone="no"?>
<!-- Created with Inkscape (http://www.inkscape.org/) -->

<svg
   xmlns:dc="http://purl.org/dc/elements/1.1/"
   xmlns:cc="http://creativecommons.org/ns#"
   xmlns:rdf="http://www.w3.org/1999/02/22-rdf-syntax-ns#"
   xmlns:svg="http://www.w3.org/2000/svg"
   xmlns="http://www.w3.org/2000/svg"
   xmlns:sodipodi="http://sodipodi.sourceforge.net/DTD/sodipodi-0.dtd"
   xmlns:inkscape="http://www.inkscape.org/namespaces/inkscape"
   width="58"
   height="64"
   id="svg2"
   version="1.1"
   inkscape:version="0.48.4 r9939"
   sodipodi:docname="00_00.svg">
  <defs
     id="defs4" />
  <sodipodi:namedview
     id="base"
     pagecolor="#ffffff"
     bordercolor="#666666"
     borderopacity="1.0"
     inkscape:pageopacity="0.0"
     inkscape:pageshadow="2"
     inkscape:zoom="11.921875"
     inkscape:cx="29"
     inkscape:cy="32"
     inkscape:document-units="px"
     inkscape:current-layer="layer1"
     showgrid="false"
     fit-margin-top="0"
     fit-margin-left="0"
     fit-margin-right="0"
     fit-margin-bottom="0"
     inkscape:window-width="1396"
     inkscape:window-height="987"
     inkscape:window-x="0"
     inkscape:window-y="61"
     inkscape:window-maximized="0">
    <inkscape:grid
       type="xygrid"
       id="grid3000"
       empspacing="5"
       visible="true"
       enabled="true"
       snapvisiblegridlinesonly="true" />
  </sodipodi:namedview>
  <metadata
     id="metadata7">
    <rdf:RDF>
      <cc:Work
         rdf:about="">
        <dc:format>image/svg+xml</dc:format>
        <dc:type
           rdf:resource="http://purl.org/dc/dcmitype/StillImage" />
        <dc:title />
      </cc:Work>
    </rdf:RDF>
  </metadata>
  <g
     inkscape:label="Ebene 1"
     inkscape:groupmode="layer"
     id="layer1"
     transform="translate(-625.28571,-626.07648)">
    <g
       id="g3006"
       style="fill:#8f5902">
      <rect
         transform="translate(625.28571,626.07648)"
         y="0"
         x="0"
         height="64"
         width="58"
         id="rect3002"
         style="fill:#8f5902;fill-opacity:1;stroke:none" />
      <rect
         transform="translate(625.28571,626.07648)"
         y="1"
         x="1"
         height="62"
         width="56"
         id="rect3004"
         style="fill:#8f5902;fill-opacity:1;stroke:none" />
    </g>
    <g
       id="g3794"
       transform="translate(5.4246297,1.0000019)">
      <g
         id="g3768">
        <text
           xml:space="preserve"
           style="font-size:24px;font-style:normal;font-variant:normal;font-weight:bold;font-stretch:normal;text-align:center;text-anchor:middle;fill:#4e9a06;fill-opacity:1;stroke:#e9b96e;stroke-width:1;stroke-linecap:butt;stroke-linejoin:miter;stroke-miterlimit:4;stroke-opacity:1;stroke-dasharray:none;font-family:Symbola;-inkscape-font-specification:Symbola Bold"
           x="654.29156"
           y="664.35773"
           id="text2996"><tspan
             sodipodi:role="line"
             id="tspan2998"
             x="654.29156"
             y="664.35773"
             style="font-size:24px;fill:#e9b96e;stroke:none">🍠</tspan></text>
        <path
           style="fill:#c17d11;fill-opacity:1;stroke:none"
           d="M 28.437041,38.899691 C 27.774781,37.7259 27.746789,37.686697 26.889307,36.732017 26.156767,35.916443 25.898727,35.574811 24.976831,34.19999 24.042852,32.80715 23.401829,31.938269 23.062817,31.605616 22.927683,31.473018 22.62085,31.209909 22.380965,31.020929 20.982477,29.91921 20.466858,29.49731 20.1351,29.183274 19.785604,28.852447 19.748205,28.799648 19.485316,28.265926 19.331896,27.954452 19.132291,27.479152 19.041747,27.209703 L 18.877123,26.719798 18.945299,26.308 c 0.05172,-0.312385 0.05921,-0.489113 0.03105,-0.732057 -0.03629,-0.313063 -0.297957,-1.408388 -0.365123,-1.528406 -0.01862,-0.03327 -0.0105,-0.282051 0.01805,-0.552837 0.02855,-0.270786 0.053,-0.513141 0.05435,-0.538567 0.0016,-0.02981 0.177472,-0.0039 0.49523,0.07292 0.271035,0.06553 0.823067,0.186743 1.226736,0.269357 0.40367,0.08262 0.913238,0.194846 1.132373,0.249403 0.219135,0.05456 0.539973,0.111139 0.712975,0.125739 0.173001,0.0146 0.550458,0.08108 0.838794,0.147742 0.288336,0.06666 0.755179,0.140971 1.03743,0.165139 0.446641,0.03824 0.579878,0.06894 1.027523,0.236756 0.375226,0.140663 0.718521,0.230373 1.269254,0.33168 0.647255,0.119063 1.021074,0.225175 2.621232,0.744057 1.026474,0.332855 2.0173,0.676442 2.201835,0.763527 0.184535,0.08708 0.580865,0.239549 0.880734,0.338808 0.444253,0.147052 0.591814,0.217452 0.796854,0.380177 0.138401,0.109838 0.421494,0.302588 0.629096,0.428334 0.42904,0.259872 0.609061,0.405817 1.258191,1.020026 0.253736,0.240086 0.753867,0.647662 1.111403,0.905726 0.569915,0.411356 0.787096,0.606998 1.761468,1.586777 0.611271,0.614664 1.092203,1.110782 1.068738,1.102485 -0.02347,-0.0083 -0.292745,-0.143336 -0.5984,-0.300088 -0.803835,-0.412238 -1.029397,-0.465501 -1.959198,-0.462631 -1.219219,0.0038 -1.829794,0.166666 -2.737233,0.730305 -1.358,0.843496 -2.36477,1.568402 -2.944693,2.120274 -0.31754,0.302181 -0.403483,0.414929 -0.580478,0.761524 -0.175912,0.344474 -0.699396,1.60411 -0.915636,2.203253 -0.08011,0.221975 -0.07842,0.608575 0.0084,1.919387 0.03759,0.567419 0.06194,1.07357 0.05411,1.124781 -0.01008,0.06591 -0.197987,-0.232577 -0.643328,-1.0219 l 0,0 z m -0.937804,-5.094279 c 0.141655,-0.114894 0.129337,-0.444968 -0.02984,-0.79967 -0.110397,-0.245996 -0.135512,-0.271898 -0.372223,-0.383883 -0.281591,-0.133216 -0.488515,-0.153481 -0.569597,-0.05578 -0.04274,0.0515 -0.04324,0.109883 -0.0025,0.292025 0.06277,0.280475 0.33049,0.953531 0.395988,0.995519 0.101824,0.06527 0.476783,0.03401 0.578151,-0.04821 l 0,0 z m 3.541114,-3.036187 c 0.143065,-0.123059 0.187955,-0.450929 0.08816,-0.643911 -0.107295,-0.207486 -0.682529,-0.877715 -0.832273,-0.969717 -0.405001,-0.248829 -1.071051,-0.347424 -1.326364,-0.196341 -0.113389,0.0671 -0.13598,0.103891 -0.12582,0.204912 0.01101,0.109438 0.05768,0.146782 0.419753,0.335838 l 0.407369,0.212709 -0.02131,0.209699 c -0.02252,0.221612 0.03138,0.376239 0.1589,0.45587 0.05425,0.03388 0.115102,0.02363 0.251226,-0.04229 l 0.179632,-0.087 0.126232,0.256109 c 0.179431,0.364048 0.439798,0.466005 0.674495,0.264127 l 0,0 z m -7.242976,-2.18655 c 0.09868,-0.09868 0.07145,-0.366021 -0.05706,-0.560205 -0.132317,-0.199945 -0.493315,-0.507842 -0.846186,-0.721718 -0.209265,-0.126836 -0.283655,-0.148175 -0.557671,-0.159971 -0.269339,-0.01159 -0.344162,0.0013 -0.504923,0.08696 -0.152608,0.08132 -0.191174,0.125128 -0.201506,0.228893 -0.01109,0.111422 0.0049,0.134496 0.121593,0.175167 0.0739,0.02576 0.226523,0.04684 0.339156,0.04684 0.112633,0 0.270236,0.02735 0.35023,0.06077 0.123301,0.05152 0.145441,0.08134 0.145441,0.195918 0,0.175184 0.253626,0.42315 0.630426,0.616357 0.284209,0.14573 0.456559,0.154931 0.580498,0.03099 l 0,0 z"
           id="path3764"
           inkscape:connector-curvature="0"
           transform="translate(625.28571,626.07648)" />
        <path
           style="fill:#c17d11;fill-opacity:1;stroke:none"
           d="m 30.806635,40.849172 c -0.37229,-0.03913 -0.565733,-0.110684 -0.686161,-0.253804 -0.125025,-0.148584 -0.333586,-0.685441 -0.469933,-1.209656 -0.273873,-1.052961 0.02752,-2.64695 0.809497,-4.281176 0.287613,-0.601074 0.47367,-0.791049 1.235263,-1.261273 0.30704,-0.189573 0.756419,-0.491437 0.998621,-0.670808 0.68178,-0.504917 1.243554,-0.867767 1.656619,-1.07001 0.460858,-0.225645 0.915757,-0.314066 1.609687,-0.312883 1.126664,0.0019 1.902372,0.23718 2.445601,0.741711 0.145476,0.135112 0.325019,0.270611 0.398984,0.301108 0.199822,0.08239 0.240828,0.25083 0.241114,0.990426 2.94e-4,0.735501 -0.01994,0.841364 -0.376582,1.971167 -0.145629,0.461336 -0.315082,1.091028 -0.376563,1.399313 l -0.111785,0.56052 -0.380951,0.608486 c -0.209524,0.334667 -0.481184,0.716749 -0.60369,0.84907 -0.657737,0.710434 -1.832833,1.221613 -3.370062,1.466011 -0.90077,0.14321 -2.452,0.231464 -3.019659,0.171798 l 0,0 z m 2.946286,-1.592899 c 0.274521,-0.403193 0.429393,-0.576973 0.547639,-0.614502 0.04512,-0.01432 0.25033,0.0081 0.456019,0.04988 0.364496,0.074 0.377722,0.0739 0.521594,-0.0036 0.358416,-0.193019 0.238433,-0.444217 -0.319507,-0.668926 -0.461617,-0.185915 -0.94942,-0.04343 -1.356447,0.396204 -0.351317,0.379465 -0.522897,0.966416 -0.336883,1.15243 0.127655,0.127656 0.235467,0.05878 0.487585,-0.311511 l 0,2e-6 z m -2.946286,-1.616952 0,-0.775885 -0.140289,0 c -0.229318,0 -0.29246,0.110137 -0.313324,0.546524 -0.02785,0.582482 0.120027,1.005246 0.35162,1.005246 l 0.101993,0 0,-0.775885 z m 1.102237,-0.436882 c 0.09448,-0.03592 0.102997,-0.06562 0.129271,-0.450852 0.08109,-1.188884 0.281994,-1.721284 0.886672,-2.349654 0.230105,-0.239121 0.355633,-0.402712 0.355881,-0.463792 3.42e-4,-0.08447 -0.0202,-0.09436 -0.195908,-0.09436 -0.254563,0 -0.615802,0.229065 -0.994774,0.630796 -0.457789,0.485281 -0.763209,1.278984 -0.731644,1.901342 0.02171,0.427985 0.198511,0.77316 0.441603,0.86214 0.0043,0.0016 0.05327,-0.01447 0.108899,-0.03562 z m 3.275842,-2.067184 c 0.398725,-0.433319 0.509756,-0.632396 0.470226,-0.84311 -0.02869,-0.15292 -0.03147,-0.15479 -0.230544,-0.15479 -0.156294,0 -0.239589,0.02759 -0.371236,0.122952 -0.299703,0.217103 -0.502999,0.548571 -0.542857,0.885111 -0.02961,0.250001 0.02558,0.334008 0.219447,0.334008 0.11944,0 0.181399,-0.04687 0.454964,-0.344171 z"
           id="path3766"
           inkscape:connector-curvature="0"
           transform="translate(625.28571,626.07648)" />
      </g>
      <g
         transform="matrix(0.9961947,0.08715574,-0.08715574,0.9961947,49.844899,-50.520577)"
         id="g3774">
        <text
           id="text3776"
           y="664.35773"
           x="654.29156"
           style="font-size:24px;font-style:normal;font-variant:normal;font-weight:bold;font-stretch:normal;text-align:center;text-anchor:middle;fill:#4e9a06;fill-opacity:1;stroke:#e9b96e;stroke-width:1;stroke-linecap:butt;stroke-linejoin:miter;stroke-miterlimit:4;stroke-opacity:1;stroke-dasharray:none;font-family:Symbola;-inkscape-font-specification:Symbola Bold"
           xml:space="preserve"><tspan
             style="font-size:24px;fill:#e9b96e;stroke:none"
             y="664.35773"
             x="654.29156"
             id="tspan3778"
             sodipodi:role="line">🍠</tspan></text>
        <path
           transform="translate(625.28571,626.07648)"
           inkscape:connector-curvature="0"
           id="path3780"
           d="M 28.437041,38.899691 C 27.774781,37.7259 27.746789,37.686697 26.889307,36.732017 26.156767,35.916443 25.898727,35.574811 24.976831,34.19999 24.042852,32.80715 23.401829,31.938269 23.062817,31.605616 22.927683,31.473018 22.62085,31.209909 22.380965,31.020929 20.982477,29.91921 20.466858,29.49731 20.1351,29.183274 19.785604,28.852447 19.748205,28.799648 19.485316,28.265926 19.331896,27.954452 19.132291,27.479152 19.041747,27.209703 L 18.877123,26.719798 18.945299,26.308 c 0.05172,-0.312385 0.05921,-0.489113 0.03105,-0.732057 -0.03629,-0.313063 -0.297957,-1.408388 -0.365123,-1.528406 -0.01862,-0.03327 -0.0105,-0.282051 0.01805,-0.552837 0.02855,-0.270786 0.053,-0.513141 0.05435,-0.538567 0.0016,-0.02981 0.177472,-0.0039 0.49523,0.07292 0.271035,0.06553 0.823067,0.186743 1.226736,0.269357 0.40367,0.08262 0.913238,0.194846 1.132373,0.249403 0.219135,0.05456 0.539973,0.111139 0.712975,0.125739 0.173001,0.0146 0.550458,0.08108 0.838794,0.147742 0.288336,0.06666 0.755179,0.140971 1.03743,0.165139 0.446641,0.03824 0.579878,0.06894 1.027523,0.236756 0.375226,0.140663 0.718521,0.230373 1.269254,0.33168 0.647255,0.119063 1.021074,0.225175 2.621232,0.744057 1.026474,0.332855 2.0173,0.676442 2.201835,0.763527 0.184535,0.08708 0.580865,0.239549 0.880734,0.338808 0.444253,0.147052 0.591814,0.217452 0.796854,0.380177 0.138401,0.109838 0.421494,0.302588 0.629096,0.428334 0.42904,0.259872 0.609061,0.405817 1.258191,1.020026 0.253736,0.240086 0.753867,0.647662 1.111403,0.905726 0.569915,0.411356 0.787096,0.606998 1.761468,1.586777 0.611271,0.614664 1.092203,1.110782 1.068738,1.102485 -0.02347,-0.0083 -0.292745,-0.143336 -0.5984,-0.300088 -0.803835,-0.412238 -1.029397,-0.465501 -1.959198,-0.462631 -1.219219,0.0038 -1.829794,0.166666 -2.737233,0.730305 -1.358,0.843496 -2.36477,1.568402 -2.944693,2.120274 -0.31754,0.302181 -0.403483,0.414929 -0.580478,0.761524 -0.175912,0.344474 -0.699396,1.60411 -0.915636,2.203253 -0.08011,0.221975 -0.07842,0.608575 0.0084,1.919387 0.03759,0.567419 0.06194,1.07357 0.05411,1.124781 -0.01008,0.06591 -0.197987,-0.232577 -0.643328,-1.0219 l 0,0 z m -0.937804,-5.094279 c 0.141655,-0.114894 0.129337,-0.444968 -0.02984,-0.79967 -0.110397,-0.245996 -0.135512,-0.271898 -0.372223,-0.383883 -0.281591,-0.133216 -0.488515,-0.153481 -0.569597,-0.05578 -0.04274,0.0515 -0.04324,0.109883 -0.0025,0.292025 0.06277,0.280475 0.33049,0.953531 0.395988,0.995519 0.101824,0.06527 0.476783,0.03401 0.578151,-0.04821 l 0,0 z m 3.541114,-3.036187 c 0.143065,-0.123059 0.187955,-0.450929 0.08816,-0.643911 -0.107295,-0.207486 -0.682529,-0.877715 -0.832273,-0.969717 -0.405001,-0.248829 -1.071051,-0.347424 -1.326364,-0.196341 -0.113389,0.0671 -0.13598,0.103891 -0.12582,0.204912 0.01101,0.109438 0.05768,0.146782 0.419753,0.335838 l 0.407369,0.212709 -0.02131,0.209699 c -0.02252,0.221612 0.03138,0.376239 0.1589,0.45587 0.05425,0.03388 0.115102,0.02363 0.251226,-0.04229 l 0.179632,-0.087 0.126232,0.256109 c 0.179431,0.364048 0.439798,0.466005 0.674495,0.264127 l 0,0 z m -7.242976,-2.18655 c 0.09868,-0.09868 0.07145,-0.366021 -0.05706,-0.560205 -0.132317,-0.199945 -0.493315,-0.507842 -0.846186,-0.721718 -0.209265,-0.126836 -0.283655,-0.148175 -0.557671,-0.159971 -0.269339,-0.01159 -0.344162,0.0013 -0.504923,0.08696 -0.152608,0.08132 -0.191174,0.125128 -0.201506,0.228893 -0.01109,0.111422 0.0049,0.134496 0.121593,0.175167 0.0739,0.02576 0.226523,0.04684 0.339156,0.04684 0.112633,0 0.270236,0.02735 0.35023,0.06077 0.123301,0.05152 0.145441,0.08134 0.145441,0.195918 0,0.175184 0.253626,0.42315 0.630426,0.616357 0.284209,0.14573 0.456559,0.154931 0.580498,0.03099 l 0,0 z"
           style="fill:#c17d11;fill-opacity:1;stroke:none" />
        <path
           transform="translate(625.28571,626.07648)"
           inkscape:connector-curvature="0"
           id="path3782"
           d="m 30.806635,40.849172 c -0.37229,-0.03913 -0.565733,-0.110684 -0.686161,-0.253804 -0.125025,-0.148584 -0.333586,-0.685441 -0.469933,-1.209656 -0.273873,-1.052961 0.02752,-2.64695 0.809497,-4.281176 0.287613,-0.601074 0.47367,-0.791049 1.235263,-1.261273 0.30704,-0.189573 0.756419,-0.491437 0.998621,-0.670808 0.68178,-0.504917 1.243554,-0.867767 1.656619,-1.07001 0.460858,-0.225645 0.915757,-0.314066 1.609687,-0.312883 1.126664,0.0019 1.902372,0.23718 2.445601,0.741711 0.145476,0.135112 0.325019,0.270611 0.398984,0.301108 0.199822,0.08239 0.240828,0.25083 0.241114,0.990426 2.94e-4,0.735501 -0.01994,0.841364 -0.376582,1.971167 -0.145629,0.461336 -0.315082,1.091028 -0.376563,1.399313 l -0.111785,0.56052 -0.380951,0.608486 c -0.209524,0.334667 -0.481184,0.716749 -0.60369,0.84907 -0.657737,0.710434 -1.832833,1.221613 -3.370062,1.466011 -0.90077,0.14321 -2.452,0.231464 -3.019659,0.171798 l 0,0 z m 2.946286,-1.592899 c 0.274521,-0.403193 0.429393,-0.576973 0.547639,-0.614502 0.04512,-0.01432 0.25033,0.0081 0.456019,0.04988 0.364496,0.074 0.377722,0.0739 0.521594,-0.0036 0.358416,-0.193019 0.238433,-0.444217 -0.319507,-0.668926 -0.461617,-0.185915 -0.94942,-0.04343 -1.356447,0.396204 -0.351317,0.379465 -0.522897,0.966416 -0.336883,1.15243 0.127655,0.127656 0.235467,0.05878 0.487585,-0.311511 l 0,2e-6 z m -2.946286,-1.616952 0,-0.775885 -0.140289,0 c -0.229318,0 -0.29246,0.110137 -0.313324,0.546524 -0.02785,0.582482 0.120027,1.005246 0.35162,1.005246 l 0.101993,0 0,-0.775885 z m 1.102237,-0.436882 c 0.09448,-0.03592 0.102997,-0.06562 0.129271,-0.450852 0.08109,-1.188884 0.281994,-1.721284 0.886672,-2.349654 0.230105,-0.239121 0.355633,-0.402712 0.355881,-0.463792 3.42e-4,-0.08447 -0.0202,-0.09436 -0.195908,-0.09436 -0.254563,0 -0.615802,0.229065 -0.994774,0.630796 -0.457789,0.485281 -0.763209,1.278984 -0.731644,1.901342 0.02171,0.427985 0.198511,0.77316 0.441603,0.86214 0.0043,0.0016 0.05327,-0.01447 0.108899,-0.03562 z m 3.275842,-2.067184 c 0.398725,-0.433319 0.509756,-0.632396 0.470226,-0.84311 -0.02869,-0.15292 -0.03147,-0.15479 -0.230544,-0.15479 -0.156294,0 -0.239589,0.02759 -0.371236,0.122952 -0.299703,0.217103 -0.502999,0.548571 -0.542857,0.885111 -0.02961,0.250001 0.02558,0.334008 0.219447,0.334008 0.11944,0 0.181399,-0.04687 0.454964,-0.344171 z"
           style="fill:#c17d11;fill-opacity:1;stroke:none" />
      </g>
      <g
         transform="matrix(0.9961947,-0.08715574,0.08715574,0.9961947,-60.865389,53.528936)"
         id="g3784">
        <text
           xml:space="preserve"
           style="font-size:24px;font-style:normal;font-variant:normal;font-weight:bold;font-stretch:normal;text-align:center;text-anchor:middle;fill:#4e9a06;fill-opacity:1;stroke:#e9b96e;stroke-width:1;stroke-linecap:butt;stroke-linejoin:miter;stroke-miterlimit:4;stroke-opacity:1;stroke-dasharray:none;font-family:Symbola;-inkscape-font-specification:Symbola Bold"
           x="654.29156"
           y="664.35773"
           id="text3786"><tspan
             sodipodi:role="line"
             id="tspan3788"
             x="654.29156"
             y="664.35773"
             style="font-size:24px;fill:#e9b96e;stroke:none">🍠</tspan></text>
        <path
           style="fill:#c17d11;fill-opacity:1;stroke:none"
           d="M 28.437041,38.899691 C 27.774781,37.7259 27.746789,37.686697 26.889307,36.732017 26.156767,35.916443 25.898727,35.574811 24.976831,34.19999 24.042852,32.80715 23.401829,31.938269 23.062817,31.605616 22.927683,31.473018 22.62085,31.209909 22.380965,31.020929 20.982477,29.91921 20.466858,29.49731 20.1351,29.183274 19.785604,28.852447 19.748205,28.799648 19.485316,28.265926 19.331896,27.954452 19.132291,27.479152 19.041747,27.209703 L 18.877123,26.719798 18.945299,26.308 c 0.05172,-0.312385 0.05921,-0.489113 0.03105,-0.732057 -0.03629,-0.313063 -0.297957,-1.408388 -0.365123,-1.528406 -0.01862,-0.03327 -0.0105,-0.282051 0.01805,-0.552837 0.02855,-0.270786 0.053,-0.513141 0.05435,-0.538567 0.0016,-0.02981 0.177472,-0.0039 0.49523,0.07292 0.271035,0.06553 0.823067,0.186743 1.226736,0.269357 0.40367,0.08262 0.913238,0.194846 1.132373,0.249403 0.219135,0.05456 0.539973,0.111139 0.712975,0.125739 0.173001,0.0146 0.550458,0.08108 0.838794,0.147742 0.288336,0.06666 0.755179,0.140971 1.03743,0.165139 0.446641,0.03824 0.579878,0.06894 1.027523,0.236756 0.375226,0.140663 0.718521,0.230373 1.269254,0.33168 0.647255,0.119063 1.021074,0.225175 2.621232,0.744057 1.026474,0.332855 2.0173,0.676442 2.201835,0.763527 0.184535,0.08708 0.580865,0.239549 0.880734,0.338808 0.444253,0.147052 0.591814,0.217452 0.796854,0.380177 0.138401,0.109838 0.421494,0.302588 0.629096,0.428334 0.42904,0.259872 0.609061,0.405817 1.258191,1.020026 0.253736,0.240086 0.753867,0.647662 1.111403,0.905726 0.569915,0.411356 0.787096,0.606998 1.761468,1.586777 0.611271,0.614664 1.092203,1.110782 1.068738,1.102485 -0.02347,-0.0083 -0.292745,-0.143336 -0.5984,-0.300088 -0.803835,-0.412238 -1.029397,-0.465501 -1.959198,-0.462631 -1.219219,0.0038 -1.829794,0.166666 -2.737233,0.730305 -1.358,0.843496 -2.36477,1.568402 -2.944693,2.120274 -0.31754,0.302181 -0.403483,0.414929 -0.580478,0.761524 -0.175912,0.344474 -0.699396,1.60411 -0.915636,2.203253 -0.08011,0.221975 -0.07842,0.608575 0.0084,1.919387 0.03759,0.567419 0.06194,1.07357 0.05411,1.124781 -0.01008,0.06591 -0.197987,-0.232577 -0.643328,-1.0219 l 0,0 z m -0.937804,-5.094279 c 0.141655,-0.114894 0.129337,-0.444968 -0.02984,-0.79967 -0.110397,-0.245996 -0.135512,-0.271898 -0.372223,-0.383883 -0.281591,-0.133216 -0.488515,-0.153481 -0.569597,-0.05578 -0.04274,0.0515 -0.04324,0.109883 -0.0025,0.292025 0.06277,0.280475 0.33049,0.953531 0.395988,0.995519 0.101824,0.06527 0.476783,0.03401 0.578151,-0.04821 l 0,0 z m 3.541114,-3.036187 c 0.143065,-0.123059 0.187955,-0.450929 0.08816,-0.643911 -0.107295,-0.207486 -0.682529,-0.877715 -0.832273,-0.969717 -0.405001,-0.248829 -1.071051,-0.347424 -1.326364,-0.196341 -0.113389,0.0671 -0.13598,0.103891 -0.12582,0.204912 0.01101,0.109438 0.05768,0.146782 0.419753,0.335838 l 0.407369,0.212709 -0.02131,0.209699 c -0.02252,0.221612 0.03138,0.376239 0.1589,0.45587 0.05425,0.03388 0.115102,0.02363 0.251226,-0.04229 l 0.179632,-0.087 0.126232,0.256109 c 0.179431,0.364048 0.439798,0.466005 0.674495,0.264127 l 0,0 z m -7.242976,-2.18655 c 0.09868,-0.09868 0.07145,-0.366021 -0.05706,-0.560205 -0.132317,-0.199945 -0.493315,-0.507842 -0.846186,-0.721718 -0.209265,-0.126836 -0.283655,-0.148175 -0.557671,-0.159971 -0.269339,-0.01159 -0.344162,0.0013 -0.504923,0.08696 -0.152608,0.08132 -0.191174,0.125128 -0.201506,0.228893 -0.01109,0.111422 0.0049,0.134496 0.121593,0.175167 0.0739,0.02576 0.226523,0.04684 0.339156,0.04684 0.112633,0 0.270236,0.02735 0.35023,0.06077 0.123301,0.05152 0.145441,0.08134 0.145441,0.195918 0,0.175184 0.253626,0.42315 0.630426,0.616357 0.284209,0.14573 0.456559,0.154931 0.580498,0.03099 l 0,0 z"
           id="path3790"
           inkscape:connector-curvature="0"
           transform="translate(625.28571,626.07648)" />
        <path
           style="fill:#c17d11;fill-opacity:1;stroke:none"
           d="m 30.806635,40.849172 c -0.37229,-0.03913 -0.565733,-0.110684 -0.686161,-0.253804 -0.125025,-0.148584 -0.333586,-0.685441 -0.469933,-1.209656 -0.273873,-1.052961 0.02752,-2.64695 0.809497,-4.281176 0.287613,-0.601074 0.47367,-0.791049 1.235263,-1.261273 0.30704,-0.189573 0.756419,-0.491437 0.998621,-0.670808 0.68178,-0.504917 1.243554,-0.867767 1.656619,-1.07001 0.460858,-0.225645 0.915757,-0.314066 1.609687,-0.312883 1.126664,0.0019 1.902372,0.23718 2.445601,0.741711 0.145476,0.135112 0.325019,0.270611 0.398984,0.301108 0.199822,0.08239 0.240828,0.25083 0.241114,0.990426 2.94e-4,0.735501 -0.01994,0.841364 -0.376582,1.971167 -0.145629,0.461336 -0.315082,1.091028 -0.376563,1.399313 l -0.111785,0.56052 -0.380951,0.608486 c -0.209524,0.334667 -0.481184,0.716749 -0.60369,0.84907 -0.657737,0.710434 -1.832833,1.221613 -3.370062,1.466011 -0.90077,0.14321 -2.452,0.231464 -3.019659,0.171798 l 0,0 z m 2.946286,-1.592899 c 0.274521,-0.403193 0.429393,-0.576973 0.547639,-0.614502 0.04512,-0.01432 0.25033,0.0081 0.456019,0.04988 0.364496,0.074 0.377722,0.0739 0.521594,-0.0036 0.358416,-0.193019 0.238433,-0.444217 -0.319507,-0.668926 -0.461617,-0.185915 -0.94942,-0.04343 -1.356447,0.396204 -0.351317,0.379465 -0.522897,0.966416 -0.336883,1.15243 0.127655,0.127656 0.235467,0.05878 0.487585,-0.311511 l 0,2e-6 z m -2.946286,-1.616952 0,-0.775885 -0.140289,0 c -0.229318,0 -0.29246,0.110137 -0.313324,0.546524 -0.02785,0.582482 0.120027,1.005246 0.35162,1.005246 l 0.101993,0 0,-0.775885 z m 1.102237,-0.436882 c 0.09448,-0.03592 0.102997,-0.06562 0.129271,-0.450852 0.08109,-1.188884 0.281994,-1.721284 0.886672,-2.349654 0.230105,-0.239121 0.355633,-0.402712 0.355881,-0.463792 3.42e-4,-0.08447 -0.0202,-0.09436 -0.195908,-0.09436 -0.254563,0 -0.615802,0.229065 -0.994774,0.630796 -0.457789,0.485281 -0.763209,1.278984 -0.731644,1.901342 0.02171,0.427985 0.198511,0.77316 0.441603,0.86214 0.0043,0.0016 0.05327,-0.01447 0.108899,-0.03562 z m 3.275842,-2.067184 c 0.398725,-0.433319 0.509756,-0.632396 0.470226,-0.84311 -0.02869,-0.15292 -0.03147,-0.15479 -0.230544,-0.15479 -0.156294,0 -0.239589,0.02759 -0.371236,0.122952 -0.299703,0.217103 -0.502999,0.548571 -0.542857,0.885111 -0.02961,0.250001 0.02558,0.334008 0.219447,0.334008 0.11944,0 0.181399,-0.04687 0.454964,-0.344171 z"
           id="path3792"
           inkscape:connector-curvature="0"
           transform="translate(625.28571,626.07648)" />
      </g>
    </g>
  </g>
</svg>
