<?xml version="1.0" encoding="UTF-8" standalone="no"?>
<!-- Created with Inkscape (http://www.inkscape.org/) -->

<svg
   xmlns:dc="http://purl.org/dc/elements/1.1/"
   xmlns:cc="http://creativecommons.org/ns#"
   xmlns:rdf="http://www.w3.org/1999/02/22-rdf-syntax-ns#"
   xmlns:svg="http://www.w3.org/2000/svg"
   xmlns="http://www.w3.org/2000/svg"
   xmlns:sodipodi="http://sodipodi.sourceforge.net/DTD/sodipodi-0.dtd"
   xmlns:inkscape="http://www.inkscape.org/namespaces/inkscape"
   width="58"
   height="64"
   id="svg2"
   version="1.1"
   inkscape:version="0.48.4 r9939"
   sodipodi:docname="00_05.svg">
  <defs
     id="defs4" />
  <sodipodi:namedview
     id="base"
     pagecolor="#ffffff"
     bordercolor="#666666"
     borderopacity="1.0"
     inkscape:pageopacity="0.0"
     inkscape:pageshadow="2"
     inkscape:zoom="11.921875"
     inkscape:cx="29"
     inkscape:cy="32"
     inkscape:document-units="px"
     inkscape:current-layer="layer1"
     showgrid="false"
     fit-margin-top="0"
     fit-margin-left="0"
     fit-margin-right="0"
     fit-margin-bottom="0"
     inkscape:window-width="1396"
     inkscape:window-height="987"
     inkscape:window-x="0"
     inkscape:window-y="61"
     inkscape:window-maximized="0">
    <inkscape:grid
       type="xygrid"
       id="grid3000"
       empspacing="5"
       visible="true"
       enabled="true"
       snapvisiblegridlinesonly="true" />
  </sodipodi:namedview>
  <metadata
     id="metadata7">
    <rdf:RDF>
      <cc:Work
         rdf:about="">
        <dc:format>image/svg+xml</dc:format>
        <dc:type
           rdf:resource="http://purl.org/dc/dcmitype/StillImage" />
        <dc:title />
      </cc:Work>
    </rdf:RDF>
  </metadata>
  <g
     inkscape:label="Ebene 1"
     inkscape:groupmode="layer"
     id="layer1"
     transform="translate(-625.28571,-626.07648)">
    <g
       id="g3006"
       style="fill:#8f5902">
      <rect
         transform="translate(625.28571,626.07648)"
         y="0"
         x="0"
         height="64"
         width="58"
         id="rect3002"
         style="fill:#8f5902;fill-opacity:1;stroke:none" />
      <rect
         transform="translate(625.28571,626.07648)"
         y="1"
         x="1"
         height="62"
         width="56"
         id="rect3004"
         style="fill:#8f5902;fill-opacity:1;stroke:none" />
    </g>
    <text
       xml:space="preserve"
       style="font-size:24px;font-style:normal;font-variant:normal;font-weight:bold;font-stretch:normal;text-align:center;text-anchor:middle;fill:#e9b96e;fill-opacity:1;stroke:none;stroke-width:1;stroke-linecap:butt;stroke-linejoin:miter;stroke-miterlimit:4;stroke-opacity:1;stroke-dasharray:none;font-family:Symbola;-inkscape-font-specification:Symbola Bold"
       x="654.27399"
       y="671.59991"
       id="text2996"><tspan
         sodipodi:role="line"
         id="tspan2998"
         x="654.27399"
         y="671.59991"
         style="font-size:48px;fill:#e9b96e;stroke:none;stroke-width:1;stroke-miterlimit:4;stroke-dasharray:none">💎</tspan></text>
    <path
       style="fill:#edd400;fill-opacity:1;stroke:none"
       d="m 7.4962202,23.606671 c -0.00589,-0.198177 0.6023246,-1.67637 0.8465387,-2.057398 0.138744,-0.216471 0.5060712,-0.633015 0.8162828,-0.925653 0.6380724,-0.601925 2.6082123,-2.109752 2.6725523,-2.045412 0.05903,0.05903 -1.045857,1.516542 -1.944263,2.56476 -0.9606654,1.120858 -2.3873298,2.590835 -2.3911108,2.463703 z"
       id="path3000"
       inkscape:connector-curvature="0"
       transform="translate(625.28571,626.07648)" />
    <path
       style="fill:#73d216;fill-opacity:1;stroke:none"
       d="m 12.326283,19.375664 c 0.05086,-0.06432 0.71111,-0.871007 1.467232,-1.792635 l 1.374768,-1.675687 0.02287,1.58568 c 0.01465,1.015693 -0.008,1.604753 -0.06298,1.638742 -0.04722,0.02918 -0.642575,0.100392 -1.323007,0.158237 -0.680431,0.05785 -1.312344,0.127098 -1.404249,0.153893 -0.134025,0.03908 -0.148799,0.02557 -0.07464,-0.06823 l 0,0 z"
       id="path3002"
       inkscape:connector-curvature="0"
       transform="translate(625.28571,626.07648)" />
    <path
       style="fill:#f57900;fill-opacity:1;stroke:none"
       d="m 19.804635,20.955228 -3.75159,-1.696512 -0.002,-2.180865 -0.002,-2.180865 3.896979,-1.614679 3.896978,-1.614679 5.144292,0 5.144292,0 3.897071,1.615453 3.897071,1.615453 0,2.173243 0,2.173243 -3.774574,1.700889 -3.774574,1.700888 -5.410223,0.0025 -5.410223,0.0025 -3.75159,-1.696514 0,-4e-6 z"
       id="path3004"
       inkscape:connector-curvature="0"
       transform="translate(625.28571,626.07648)" />
    <path
       style="fill:#3465a4;fill-opacity:1;stroke:none"
       d="m 44.252486,19.297354 c -0.750215,-0.07616 -1.38329,-0.157734 -1.406834,-0.181278 -0.02354,-0.02354 -0.03254,-0.763468 -0.01998,-1.644276 l 0.02282,-1.60147 1.411608,1.764454 c 0.776384,0.97045 1.399189,1.772687 1.38401,1.782749 -0.01518,0.01006 -0.64141,-0.04402 -1.391625,-0.120179 l 0,0 z"
       id="path3006"
       inkscape:connector-curvature="0"
       transform="translate(625.28571,626.07648)" />
    <path
       style="fill:#75507b;fill-opacity:1;stroke:none"
       d="m 49.466288,22.635939 c -1.216186,-1.252095 -3.388437,-3.895352 -3.388437,-4.123147 0,-0.105349 2.286635,1.681681 2.832229,2.213419 0.385468,0.375677 0.626504,0.713216 0.904322,1.266385 0.416055,0.828415 0.733194,1.589734 0.683097,1.639831 -0.01766,0.01766 -0.481706,-0.430759 -1.031211,-0.996488 z"
       id="path3008"
       inkscape:connector-curvature="0"
       transform="translate(625.28571,626.07648)" />
    <path
       style="fill:#edd400;fill-opacity:1;stroke:none"
       d="m 45.505126,26.720484 c -1.998878,-0.797228 -3.654516,-1.4697 -3.679197,-1.49438 -0.03785,-0.03785 1.196533,-4.953029 1.278809,-5.092088 0.01542,-0.02606 0.792158,0.06971 1.726091,0.212813 l 1.698062,0.260187 1.323158,3.76756 c 0.727737,2.072159 1.315113,3.773828 1.305279,3.781488 -0.0098,0.0077 -1.653324,-0.638351 -3.652202,-1.43558 l 0,0 z"
       id="path3010"
       inkscape:connector-curvature="0"
       transform="translate(625.28571,626.07648)" />
    <path
       style="fill:#73d216;fill-opacity:1;stroke:none"
       d="m 38.555545,24.009333 c -1.300047,-0.49069 -2.385102,-0.914048 -2.411234,-0.940794 -0.02613,-0.02675 1.245144,-0.560006 2.825058,-1.18502 1.579914,-0.625014 2.885038,-1.103604 2.900277,-1.063533 0.03346,0.08798 -0.830961,3.95222 -0.901086,4.028141 -0.02711,0.02935 -1.112968,-0.348104 -2.413015,-0.838794 l 0,0 z"
       id="path3012"
       inkscape:connector-curvature="0"
       transform="translate(625.28571,626.07648)" />
    <path
       style="fill:#3465a4;fill-opacity:1;stroke:none"
       d="m 26.863688,25.646696 -2.1447,-1.942371 2.12373,-0.02239 c 1.168052,-0.01231 3.089978,-0.01231 4.270947,0 l 2.147217,0.02239 -2.036264,1.887287 c -1.119946,1.038008 -2.076757,1.912075 -2.126247,1.942371 -0.04949,0.0303 -1.055098,-0.818984 -2.234683,-1.887287 z"
       id="path3014"
       inkscape:connector-curvature="0"
       transform="translate(625.28571,626.07648)" />
    <path
       style="fill:#cc0000;fill-opacity:1;stroke:none"
       d="m 17.05557,24.970081 c 0,-0.01195 -0.224656,-0.960857 -0.499235,-2.108682 -0.27458,-1.147826 -0.489944,-2.096248 -0.478587,-2.107604 0.01136,-0.01136 1.340075,0.502712 2.952708,1.142375 2.583418,1.024732 2.907126,1.173039 2.722362,1.247251 -0.247131,0.09926 -2.708129,1.068386 -3.879424,1.52769 -0.449803,0.176383 -0.817824,0.310919 -0.817824,0.29897 z"
       id="path3016"
       inkscape:connector-curvature="0"
       transform="translate(625.28571,626.07648)" />
    <path
       style="fill:#edd400;fill-opacity:1;stroke:none"
       d="m 8.8353866,28.074647 c 0,-0.07448 2.5201204,-7.231632 2.5873344,-7.348041 0.05169,-0.08953 0.553959,-0.200381 1.741346,-0.384321 0.917784,-0.142176 1.679894,-0.250509 1.693577,-0.24074 0.03235,0.0231 1.353008,5.104754 1.332096,5.125666 -0.04245,0.04245 -7.2147434,2.880784 -7.2795672,2.880784 -0.041132,0 -0.074786,-0.01501 -0.074786,-0.03335 z"
       id="path3018"
       inkscape:connector-curvature="0"
       transform="translate(625.28571,626.07648)" />
    <path
       style="fill:#73d216;fill-opacity:1;stroke:none"
       d="M 7.209066,28.085729 C 7.0024722,27.375071 6.822064,26.448115 6.824614,26.110375 c 0.00159,-0.210632 0.082616,-0.415922 0.2544087,-0.644582 0.3257166,-0.433536 2.364151,-2.649531 2.402217,-2.611465 0.015962,0.01596 -0.3805941,1.289495 -0.8812358,2.830073 -0.7862911,2.41958 -0.9340535,2.80457 -1.0849851,2.826889 -0.1460845,0.0216 -0.1962389,-0.04816 -0.3059528,-0.425561 z"
       id="path3020"
       inkscape:connector-curvature="0"
       transform="translate(625.28571,626.07648)" />
    <path
       style="fill:#f57900;fill-opacity:1;stroke:none"
       d="M 11.686748,31.844158 C 11.294316,31.787008 10.857055,31.68017 10.715057,31.60674 10.304414,31.394388 8.7355676,29.689684 8.847641,29.57761 c 0.066299,-0.0663 6.153253,-2.58075 6.352559,-2.62417 0.111057,-0.02419 0.18551,-0.0076 0.167759,0.03738 -0.144166,0.365306 -2.819065,4.970216 -2.883817,4.964568 -0.04613,-0.004 -0.404961,-0.05407 -0.797394,-0.111226 l 0,0 z"
       id="path3022"
       inkscape:connector-curvature="0"
       transform="translate(625.28571,626.07648)" />
    <path
       style="fill:#3465a4;fill-opacity:1;stroke:none"
       d="m 15.58768,33.497878 c -0.968807,-0.548578 -1.822135,-1.03264 -1.896285,-1.075693 -0.114832,-0.06667 0.06908,-0.438867 1.240648,-2.510783 0.756505,-1.337876 1.42256,-2.518195 1.480121,-2.622929 0.09519,-0.173199 0.239764,0.136561 1.598174,3.424175 0.821435,1.98803 1.475267,3.632853 1.452959,3.65516 -0.02231,0.02231 -0.507117,0.06012 -1.077354,0.08402 l -1.036795,0.04346 -1.761468,-0.997415 z"
       id="path3024"
       inkscape:connector-curvature="0"
       transform="translate(625.28571,626.07648)" />
    <path
       style="fill:#73d216;fill-opacity:1;stroke:none"
       d="m 12.111721,33.384393 c -0.424546,-0.46574 -0.752785,-0.865916 -0.72942,-0.88928 0.139636,-0.139636 1.845525,0.637966 2.902197,1.322921 l 0.632147,0.40977 -1.016512,0.0017 -1.016512,0.0017 -0.7719,-0.8468 z"
       id="path3026"
       inkscape:connector-curvature="0"
       transform="translate(625.28571,626.07648)" />
    <path
       style="fill:#75507b;fill-opacity:1;stroke:none"
       d="m 18.984797,30.015858 c -0.853473,-2.087333 -1.551769,-3.830473 -1.551769,-3.873646 0,-0.04317 1.279302,-0.595687 2.842894,-1.22781 l 2.842894,-1.149315 2.44151,2.227225 c 1.342829,1.224973 2.452355,2.253539 2.465612,2.285702 0.02585,0.06271 -7.315126,5.534047 -7.424226,5.533387 -0.03583,-2.16e-4 -0.763442,-1.708211 -1.616915,-3.795543 z"
       id="path3028"
       inkscape:connector-curvature="0"
       transform="translate(625.28571,626.07648)" />
    <path
       style="fill:#cc0000;fill-opacity:1;stroke:none"
       d="m 23.157798,35.127343 c -0.818873,-0.326317 -1.487053,-0.614262 -1.484845,-0.639878 0.0036,-0.04192 6.567898,-4.817599 6.843285,-4.978658 0.09607,-0.05618 0.114693,0.394187 0.114693,2.773198 l 0,2.840275 -1.866318,0.273806 c -1.026474,0.150594 -1.922935,0.285227 -1.992136,0.299184 -0.0692,0.01396 -0.795806,-0.241609 -1.614679,-0.567927 z"
       id="path3030"
       inkscape:connector-curvature="0"
       transform="translate(625.28571,626.07648)" />
    <path
       style="fill:#edd400;fill-opacity:1;stroke:none"
       d="m 31.273132,35.370361 -1.929226,-0.348451 -0.0221,-2.785922 c -0.01215,-1.532257 3.12e-4,-2.785922 0.02771,-2.785922 0.04127,0 5.822086,4.166556 6.732002,4.852131 l 0.278892,0.210131 -1.453204,0.572027 c -0.799262,0.314615 -1.509822,0.586074 -1.579023,0.603242 -0.0692,0.01717 -0.993971,-0.125589 -2.055046,-0.317236 z"
       id="path3032"
       inkscape:connector-curvature="0"
       transform="translate(625.28571,626.07648)" />
    <path
       style="fill:#f57900;fill-opacity:1;stroke:none"
       d="m 33.680592,31.128851 -3.795986,-2.754462 2.489141,-2.303477 2.48914,-2.303477 2.83858,1.142757 c 1.561218,0.628516 2.838976,1.180905 2.839461,1.227532 5.03e-4,0.04663 -0.688796,1.808458 -1.531735,3.915182 l -1.532615,3.830408 -3.795986,-2.754463 z"
       id="path3034"
       inkscape:connector-curvature="0"
       transform="translate(625.28571,626.07648)" />
    <path
       style="fill:#73d216;fill-opacity:1;stroke:none"
       d="m 39.786894,34.397164 c -0.207602,-0.03831 -0.575623,-0.07245 -0.817825,-0.07587 -0.242201,-0.0034 -0.440468,-0.03453 -0.440592,-0.06913 -3.89e-4,-0.108576 2.891786,-7.06548 2.937603,-7.066178 0.09728,-0.0015 2.86323,5.135929 2.796573,5.194286 -0.03965,0.03471 -0.619403,0.384974 -1.288341,0.778361 -2.131024,1.253206 -2.445583,1.375433 -3.187418,1.238532 z"
       id="path3036"
       inkscape:connector-curvature="0"
       transform="translate(625.28571,626.07648)" />
    <path
       style="fill:#75507b;fill-opacity:1;stroke:none"
       d="m 44.437441,30.234696 c -2.081876,-3.663412 -1.907369,-3.325523 -1.695555,-3.283001 0.328413,0.06593 6.441172,2.619442 6.418811,2.681361 -0.01169,0.03236 -0.422411,0.487133 -0.912722,1.010607 l -0.891475,0.951771 -0.618355,0.142453 c -0.340095,0.07835 -0.773216,0.165763 -0.962492,0.194253 l -0.344137,0.0518 -0.994075,-1.749243 z"
       id="path3038"
       inkscape:connector-curvature="0"
       transform="translate(625.28571,626.07648)" />
    <path
       style="fill:#cc0000;fill-opacity:1;stroke:none"
       d="m 49.406812,25.77275 c -0.493052,-1.515053 -0.896458,-2.788086 -0.896458,-2.828963 0,-0.117802 1.294542,1.191401 1.976723,1.999109 0.341561,0.404412 0.644614,0.829299 0.673451,0.944195 0.06062,0.241546 0.0203,0.499734 -0.271533,1.738597 -0.191416,0.812581 -0.230859,0.901704 -0.399067,0.901704 -0.17097,0 -0.262002,-0.231519 -1.083116,-2.754642 z"
       id="path3040"
       inkscape:connector-curvature="0"
       transform="translate(625.28571,626.07648)" />
    <path
       style="fill:#3465a4;fill-opacity:1;stroke:none"
       d="m 43.142071,34.126992 c 0.02307,-0.02151 0.500412,-0.324939 1.060767,-0.674288 0.649133,-0.404696 1.230712,-0.69828 1.602752,-0.809079 0.947453,-0.282164 0.968501,-0.246205 0.270161,0.46154 -0.854486,0.865994 -1.095616,0.981728 -2.136826,1.025596 -0.461337,0.01944 -0.819921,0.01774 -0.796854,-0.0038 z"
       id="path3042"
       inkscape:connector-curvature="0"
       transform="translate(625.28571,626.07648)" />
    <path
       style="fill:#75507b;fill-opacity:1;stroke:none"
       d="m 19.539659,35.589982 c -0.548298,-0.166511 -0.963501,-0.312962 -0.922673,-0.325446 0.279189,-0.08537 1.354636,-0.156598 1.458243,-0.09658 0.0692,0.04009 0.578768,0.219338 1.132373,0.398339 l 1.006553,0.325454 -0.838795,4.87e-4 c -0.724255,4.19e-4 -0.974923,-0.04085 -1.835701,-0.302257 l 0,4e-6 z"
       id="path3044"
       inkscape:connector-curvature="0"
       transform="translate(625.28571,626.07648)" />
    <path
       style="fill:#3465a4;fill-opacity:1;stroke:none"
       d="m 27.938925,36.51683 c -0.403669,-0.06969 -0.733945,-0.154176 -0.733945,-0.187752 0,-0.09287 1.23442,-0.294358 1.803408,-0.294358 0.552827,0 1.803408,0.200453 1.803408,0.289065 0,0.06183 -1.705623,0.347947 -1.971167,0.330666 -0.09227,-0.006 -0.498034,-0.06793 -0.901704,-0.137621 z"
       id="path3046"
       inkscape:connector-curvature="0"
       transform="translate(625.28571,626.07648)" />
    <path
       style="fill:#73d216;fill-opacity:1;stroke:none"
       d="m 36.10001,35.832199 -0.457525,-0.04924 1.024245,-0.369289 1.024244,-0.369289 0.943111,0.119267 0.94311,0.119268 -1.182108,0.312931 c -1.167696,0.309116 -1.398271,0.332861 -2.295077,0.236349 z"
       id="path3048"
       inkscape:connector-curvature="0"
       transform="translate(625.28571,626.07648)" />
    <path
       style="fill:#3465a4;fill-opacity:1;stroke:none"
       d="m 35.048591,45.051638 c 0.09816,-0.341056 2.727624,-7.560457 2.887982,-7.929192 0.141914,-0.326327 0.20227,-0.363927 1.732623,-1.079368 1.561947,-0.730212 1.60234,-0.743644 2.709157,-0.90093 0.617963,-0.08782 1.140018,-0.143217 1.160124,-0.123111 0.03278,0.03278 -7.986967,9.667504 -8.385846,10.074541 -0.164079,0.167435 -0.16428,0.167354 -0.10404,-0.04194 z"
       id="path3050"
       inkscape:connector-curvature="0"
       transform="translate(625.28571,626.07648)" />
    <path
       style="fill:#73d216;fill-opacity:1;stroke:none"
       d="m 29.409109,51.006835 c 0.03491,-0.364399 0.154329,-0.655789 0.567215,-1.384011 0.28765,-0.507337 0.699715,-1.186651 0.915701,-1.509587 1.382297,-2.066772 2.014056,-3.030766 2.901376,-4.427175 0.550537,-0.866401 1.012163,-1.541715 1.025836,-1.500697 0.02691,0.08074 -0.602943,2.181013 -0.960196,3.201791 -0.333749,0.95362 -0.826875,1.89739 -1.311248,2.509534 -0.724744,0.915923 -2.360594,2.792431 -2.784609,3.194267 l -0.39829,0.377457 0.04422,-0.461579 0,0 z"
       id="path3052"
       inkscape:connector-curvature="0"
       transform="translate(625.28571,626.07648)" />
    <path
       style="fill:#f57900;fill-opacity:1;stroke:none"
       d="m 29.406183,42.963584 0.0216,-5.314605 1.971167,-0.582611 1.971166,-0.582611 1.653756,0.228431 c 1.128242,0.155842 1.636486,0.257731 1.599411,0.320637 -0.09111,0.154593 -7.001122,10.90082 -7.123993,11.079009 -0.09747,0.141356 -0.111465,-0.632325 -0.09311,-5.14825 z"
       id="path3054"
       inkscape:connector-curvature="0"
       transform="translate(625.28571,626.07648)" />
    <path
       style="fill:#75507b;fill-opacity:1;stroke:none"
       d="m 24.951538,42.641993 c -2.000599,-3.108272 -3.623167,-5.665689 -3.605707,-5.68315 0.01746,-0.01746 0.752122,-0.131329 1.63258,-0.253041 l 1.600833,-0.221294 1.989146,0.584133 c 1.094031,0.321273 2.005944,0.600931 2.026474,0.621461 0.02053,0.02053 0.02761,2.41467 0.01573,5.320311 l -0.0216,5.282984 -3.637453,-5.651404 z"
       id="path3056"
       inkscape:connector-curvature="0"
       transform="translate(625.28571,626.07648)" />
    <path
       style="fill:#edd400;fill-opacity:1;stroke:none"
       d="m 27.371052,50.197992 c -2.185204,-2.235481 -2.775185,-3.231778 -3.734098,-6.305752 -0.306852,-0.983672 -0.54254,-1.803867 -0.523751,-1.822656 0.01879,-0.01879 1.14357,1.673058 2.499513,3.75966 1.355943,2.086603 2.591778,3.987 2.746299,4.223106 0.249244,0.380839 0.278073,0.483582 0.255462,0.910443 l -0.02549,0.48116 -1.217939,-1.245961 z"
       id="path3058"
       inkscape:connector-curvature="0"
       transform="translate(625.28571,626.07648)" />
    <path
       style="fill:#cc0000;fill-opacity:1;stroke:none"
       d="m 18.900917,40.429061 c -2.237483,-2.671689 -4.172826,-4.985843 -4.300762,-5.142564 l -0.23261,-0.284947 0.358429,0.03787 c 1.762544,0.186234 2.142676,0.299188 4.014466,1.192878 l 1.20897,0.577226 0.40784,1.122367 c 0.224311,0.617301 0.915942,2.513043 1.536956,4.212758 0.621015,1.699716 1.116911,3.102009 1.101991,3.116209 -0.01492,0.0142 -1.857796,-2.160109 -4.09528,-4.831799 z"
       id="path3060"
       inkscape:connector-curvature="0"
       transform="translate(625.28571,626.07648)" />
  </g>
</svg>
