<?xml version="1.0" encoding="UTF-8" standalone="no"?>
<!-- Created with Inkscape (http://www.inkscape.org/) -->

<svg
   xmlns:dc="http://purl.org/dc/elements/1.1/"
   xmlns:cc="http://creativecommons.org/ns#"
   xmlns:rdf="http://www.w3.org/1999/02/22-rdf-syntax-ns#"
   xmlns:svg="http://www.w3.org/2000/svg"
   xmlns="http://www.w3.org/2000/svg"
   xmlns:sodipodi="http://sodipodi.sourceforge.net/DTD/sodipodi-0.dtd"
   xmlns:inkscape="http://www.inkscape.org/namespaces/inkscape"
   width="58"
   height="64"
   id="svg3829"
   version="1.1"
   inkscape:version="0.48.4 r9939"
   sodipodi:docname="boart029.svg"
   inkscape:export-filename="/home/erlehmann/src/vcmi-data-libre/boart041.png"
   inkscape:export-xdpi="72"
   inkscape:export-ydpi="72">
  <defs
     id="defs3831" />
  <sodipodi:namedview
     id="base"
     pagecolor="#ffffff"
     bordercolor="#666666"
     borderopacity="1.0"
     inkscape:pageopacity="0.0"
     inkscape:pageshadow="2"
     inkscape:zoom="11.921875"
     inkscape:cx="29"
     inkscape:cy="32"
     inkscape:document-units="px"
     inkscape:current-layer="layer1"
     showgrid="false"
     fit-margin-top="0"
     fit-margin-left="0"
     fit-margin-right="0"
     fit-margin-bottom="0"
     inkscape:window-width="1396"
     inkscape:window-height="987"
     inkscape:window-x="0"
     inkscape:window-y="61"
     inkscape:window-maximized="0">
    <inkscape:grid
       type="xygrid"
       id="grid3848"
       empspacing="5"
       visible="true"
       enabled="true"
       snapvisiblegridlinesonly="true" />
  </sodipodi:namedview>
  <metadata
     id="metadata3834">
    <rdf:RDF>
      <cc:Work
         rdf:about="">
        <dc:format>image/svg+xml</dc:format>
        <dc:type
           rdf:resource="http://purl.org/dc/dcmitype/StillImage" />
        <dc:title></dc:title>
      </cc:Work>
    </rdf:RDF>
  </metadata>
  <g
     inkscape:label="Ebene 1"
     inkscape:groupmode="layer"
     id="layer1"
     transform="translate(-625.28571,-626.07648)">
    <rect
       style="fill:#8f5902;fill-opacity:1;stroke:#332001;stroke-width:1;stroke-miterlimit:4;stroke-opacity:1;stroke-dasharray:none"
       id="rect3850"
       width="58"
       height="64"
       x="625.28571"
       y="626.07648" />
    <g
       transform="translate(5e-6,0)"
       id="g3794"
       style="font-size:48px;font-style:normal;font-variant:normal;font-weight:bold;font-stretch:normal;text-align:center;text-anchor:middle;fill:#eeeeec;fill-opacity:1;stroke:#e9b96e;stroke-width:1;stroke-linecap:round;stroke-linejoin:round;stroke-miterlimit:4;stroke-opacity:1;font-family:Symbola;-inkscape-font-specification:Symbola Bold">
      <path
         sodipodi:nodetypes="ccccsccc"
         inkscape:connector-curvature="0"
         id="path3796"
         style="fill:#eeeeec;stroke:none"
         d="m 670.01227,662.17804 c -4e-5,3.21876 -1.83597,6.64844 -5.50781,10.28906 -3.50003,3.45312 -6.90628,5.49999 -10.21875,6.14063 -3.31252,-0.64064 -6.71877,-2.68751 -10.21875,-6.14063 -3.67188,-3.64062 -5.50782,-7.0703 -5.50782,-10.28906 l 0,-24.63281 31.45313,0 0,24.63281" />
    </g>
    <g
       style="font-size:48px;font-style:normal;font-variant:normal;font-weight:bold;font-stretch:normal;text-align:center;text-anchor:middle;fill:#eeeeec;fill-opacity:1;stroke:#e9b96e;stroke-width:1;stroke-linecap:round;stroke-linejoin:round;stroke-miterlimit:4;stroke-opacity:1;font-family:Symbola;-inkscape-font-specification:Symbola Bold"
       id="text3760"
       transform="translate(5e-6,0)">
      <path
         d="m 670.01227,662.17804 c -4e-5,3.21876 -1.83597,6.64844 -5.50781,10.28906 -3.50003,3.45312 -6.90628,5.49999 -10.21875,6.14063 -3.31252,-0.64064 -6.71877,-2.68751 -10.21875,-6.14063 -3.67188,-3.64062 -5.50782,-7.0703 -5.50782,-10.28906 l 0,-24.63281 31.45313,0 0,24.63281 m -2.69531,0 0,-21.9375 -26.0625,0 0,21.9375 c -10e-6,2.51563 1.5703,5.29688 4.71093,8.34375 2.89062,2.8125 5.66405,4.58593 8.32032,5.32031 2.65622,-0.73438 5.42966,-2.50781 8.32031,-5.32031 3.14059,-3.04687 4.7109,-5.82812 4.71094,-8.34375"
         style="fill:#cc0000;stroke:none"
         id="path3765"
         inkscape:connector-curvature="0"
         sodipodi:nodetypes="ccccsccccccscccc" />
    </g>
    <g
       style="font-size:24px;font-style:normal;font-variant:normal;font-weight:bold;font-stretch:normal;text-align:center;text-anchor:middle;fill:#cc0000;fill-opacity:1;stroke:#cc0000;stroke-width:0.5;stroke-linecap:round;stroke-linejoin:round;stroke-miterlimit:4;stroke-opacity:1;font-family:Symbola;-inkscape-font-specification:Symbola Bold"
       id="text3859">
      <path
         d="m 663.99469,651.39093 c -2e-5,0.65626 -0.34768,1.16407 -1.04297,1.52344 -1.67189,0.8672 -2.50783,2.1211 -2.50781,3.76172 -2e-5,0.0859 0.14451,0.48828 0.43359,1.20703 0.29686,0.71875 0.4453,1.23828 0.44531,1.55859 -10e-6,0.0703 -0.004,0.17969 -0.0117,0.32813 -0.008,0.14063 -0.0117,0.24609 -0.0117,0.3164 -2e-5,0.35938 0.18748,0.95313 0.5625,1.78125 0.37498,0.82813 0.56248,1.39454 0.5625,1.69922 -2e-5,0.52344 -0.37502,0.78516 -1.125,0.78516 -1.00783,0 -1.51174,-0.30078 -1.51172,-0.90235 -2e-5,-0.0859 0.008,-0.17578 0.0234,-0.26953 -0.14064,-0.0313 -0.44143,-0.28515 -0.90235,-0.76172 -0.43751,-0.43749 -0.77736,-0.65624 -1.01953,-0.65625 -0.41408,10e-6 -0.71095,0.15626 -0.89062,0.46875 -0.13283,0.33594 -0.26564,0.66797 -0.39844,0.9961 0.0703,0.33594 0.10545,0.64062 0.10547,0.91406 -2e-5,0.49219 -0.17189,0.8125 -0.51563,0.96094 -0.19532,0.0859 -0.57813,0.1289 -1.14844,0.1289 -0.57813,0 -0.86719,-0.22656 -0.86718,-0.67968 -10e-6,-0.125 0.0156,-0.26563 0.0469,-0.42188 -0.17188,-0.0781 -0.34766,-0.15234 -0.52734,-0.22265 -0.13282,-0.0781 -0.19923,-0.26954 -0.19922,-0.57422 -1e-5,-0.33594 0.18358,-0.64844 0.55078,-0.9375 -0.0313,-0.13281 -0.15235,-0.31641 -0.36328,-0.55078 -0.21095,-0.24219 -0.37501,-0.36328 -0.49219,-0.36329 -0.42188,10e-6 -1.27735,0.64063 -2.5664,1.92188 -1.56251,1.54687 -2.4297,2.3789 -2.60157,2.49609 -0.21875,0.14844 -0.56641,0.22266 -1.04297,0.22266 -1.10937,0 -1.66406,-0.29688 -1.66406,-0.89063 0,-0.42187 0.1875,-0.73046 0.5625,-0.92578 0.26562,-0.0859 0.64844,-0.27734 1.14844,-0.57422 0.4375,-0.38281 0.90234,-0.93749 1.39453,-1.66406 0.5625,-0.82812 0.84375,-1.46484 0.84375,-1.91015 0,-1.47656 -0.25,-2.21484 -0.75,-2.21485 -0.0625,1e-5 -0.30078,0.10157 -0.71484,0.30469 -0.41407,0.20313 -0.67579,0.30469 -0.78516,0.30469 -0.48438,0 -0.92969,-0.21094 -1.33594,-0.63282 0,-0.2578 -0.0156,-0.64843 -0.0469,-1.17187 -0.0156,-0.12499 -0.0625,-0.34374 -0.14063,-0.65625 -0.0703,-0.28124 -0.10547,-0.5039 -0.10547,-0.66797 0.33712,-0.78894 0.18047,-1.09794 -0.41015,-1.69922 -0.26563,-0.33593 -0.39844,-0.60936 -0.39844,-0.82031 0.17188,-0.039 0.38281,-0.0586 0.63281,-0.0586 0.25,10e-6 0.61719,0.0313 1.10157,0.0937 0.49218,0.0625 0.86327,0.0938 1.11328,0.0937 0.17968,1e-5 0.44531,-0.008 0.79687,-0.0234 0.35937,-0.0156 0.6289,-0.0234 0.8086,-0.0234 0.21093,10e-6 0.59765,0.20314 1.16015,0.60938 0.64062,0.46876 1.03124,0.73047 1.17188,0.78515 0.11718,0.0235 0.29686,0.0625 0.53906,0.11719 0.46093,0.14063 0.91796,0.28126 1.37109,0.42187 0.50781,0.14845 0.99218,0.22267 1.45313,0.22266 0.21092,10e-6 0.51952,-0.008 0.92578,-0.0234 0.41405,-0.0234 0.72655,-0.0351 0.9375,-0.0351 0.21092,10e-6 0.77733,0.13672 1.69922,0.41015 0.0625,-0.0859 0.20702,-0.41405 0.43359,-0.98437 0.35155,-0.85937 0.74999,-1.43358 1.19531,-1.72266 0.2578,-0.10936 0.64452,-0.28124 1.16016,-0.51562 0.32811,-0.16405 0.75389,-0.46874 1.27734,-0.91407 -0.0156,-0.0312 -0.13673,-0.12889 -0.36328,-0.29296 -0.16408,-0.11718 -0.24611,-0.41405 -0.24609,-0.89063 0.15623,-0.0937 0.35936,-0.14061 0.60937,-0.14062 0.3828,10e-6 0.74608,0.12892 1.08985,0.38671 0.36717,0.28127 0.55076,0.60549 0.55078,0.97266"
         style="stroke:none"
         id="path3868"
         inkscape:connector-curvature="0"
         sodipodi:nodetypes="cccccccccsccccccccscccccccccsscccscsscccccccccccccccccccccccccccc" />
    </g>
  </g>
</svg>
