<?xml version="1.0" encoding="UTF-8" standalone="no"?>
<!-- Created with Inkscape (http://www.inkscape.org/) -->

<svg
   xmlns:dc="http://purl.org/dc/elements/1.1/"
   xmlns:cc="http://creativecommons.org/ns#"
   xmlns:rdf="http://www.w3.org/1999/02/22-rdf-syntax-ns#"
   xmlns:svg="http://www.w3.org/2000/svg"
   xmlns="http://www.w3.org/2000/svg"
   xmlns:sodipodi="http://sodipodi.sourceforge.net/DTD/sodipodi-0.dtd"
   xmlns:inkscape="http://www.inkscape.org/namespaces/inkscape"
   width="58"
   height="64"
   id="svg3829"
   version="1.1"
   inkscape:version="0.48.4 r9939"
   sodipodi:docname="boart032.svg"
   inkscape:export-filename="/home/erlehmann/src/vcmi-data-libre/boart041.png"
   inkscape:export-xdpi="72"
   inkscape:export-ydpi="72">
  <defs
     id="defs3831" />
  <sodipodi:namedview
     id="base"
     pagecolor="#ffffff"
     bordercolor="#666666"
     borderopacity="1.0"
     inkscape:pageopacity="0.0"
     inkscape:pageshadow="2"
     inkscape:zoom="11.921875"
     inkscape:cx="29"
     inkscape:cy="32"
     inkscape:document-units="px"
     inkscape:current-layer="layer1"
     showgrid="false"
     fit-margin-top="0"
     fit-margin-left="0"
     fit-margin-right="0"
     fit-margin-bottom="0"
     inkscape:window-width="1396"
     inkscape:window-height="987"
     inkscape:window-x="0"
     inkscape:window-y="61"
     inkscape:window-maximized="0">
    <inkscape:grid
       type="xygrid"
       id="grid3848"
       empspacing="5"
       visible="true"
       enabled="true"
       snapvisiblegridlinesonly="true" />
  </sodipodi:namedview>
  <metadata
     id="metadata3834">
    <rdf:RDF>
      <cc:Work
         rdf:about="">
        <dc:format>image/svg+xml</dc:format>
        <dc:type
           rdf:resource="http://purl.org/dc/dcmitype/StillImage" />
        <dc:title></dc:title>
      </cc:Work>
    </rdf:RDF>
  </metadata>
  <g
     inkscape:label="Ebene 1"
     inkscape:groupmode="layer"
     id="layer1"
     transform="translate(-625.28571,-626.07648)">
    <rect
       style="fill:#8f5902;fill-opacity:1;stroke:#332001;stroke-width:1;stroke-miterlimit:4;stroke-opacity:1;stroke-dasharray:none"
       id="rect3850"
       width="58"
       height="64"
       x="625.28571"
       y="626.07648" />
    <g
       style="font-size:24px;font-style:normal;font-variant:normal;font-weight:bold;font-stretch:normal;text-align:center;text-anchor:middle;fill:#fce94f;fill-opacity:1;stroke:none;font-family:Symbola;-inkscape-font-specification:Symbola Bold"
       id="text4611">
      <path
         d="m 673.29352,664.74445 c -4e-5,2.95312 -1.17973,5.86718 -3.53906,8.74218 -2.18754,2.6875 -4.73441,4.60156 -7.64063,5.74219 -0.32815,0.0937 -0.81253,0.23437 -1.45312,0.42188 -1.89065,0.56249 -4.01565,0.84374 -6.375,0.84375 -3.28127,-10e-6 -5.89846,-0.42189 -7.85157,-1.26563 -3.01563,-1.31251 -5.57032,-3.21875 -7.66406,-5.71875 -2.32813,-2.79687 -3.49219,-5.71875 -3.49219,-8.76562 0,-2.21875 0.20313,-3.92187 0.60938,-5.10938 0.20312,-0.45311 0.50781,-1.1328 0.91406,-2.03906 1.375,-3.28123 3.15624,-5.65623 5.34375,-7.125 0.93749,-0.62498 2.87499,-1.47654 5.8125,-2.55469 0,0 4.20026,-0.83984 6.32813,-0.83984 2.12788,0 6.32814,0.83984 6.32814,0.83984 0.48435,0.15627 1.2031,0.40627 2.15625,0.75 2.65622,1.00002 4.75778,2.41408 6.30469,4.24219 1.26559,1.50002 2.46871,3.73439 3.60937,6.70312 0.12496,0.31251 0.25778,1.14845 0.39844,2.50782 0.14059,1.25 0.2109,2.125 0.21094,2.625 m -6.23438,-0.0937 c -3e-5,-0.14062 -3e-5,-0.35937 0,-0.65625 -0.0157,-0.29687 -0.0235,-0.52343 -0.0234,-0.67969 -4e-5,-0.93749 -0.0782,-1.64062 -0.23438,-2.10938 -0.28128,-0.62499 -0.56253,-1.24999 -0.84375,-1.875 -0.79691,-1.81248 -1.75784,-3.18748 -2.88281,-4.125 -0.28128,-0.17186 -0.69534,-0.42967 -1.24219,-0.77343 -2.06253,-1.31249 -4.57815,-1.96874 -7.54687,-1.96875 -2.95315,10e-6 -5.46877,0.65626 -7.54688,1.96875 -0.29689,0.15626 -0.71095,0.41407 -1.24219,0.77343 -1.87461,1.85983 -2.72473,3.75716 -3.70312,5.90625 -0.17189,0.46876 -0.25782,1.1172 -0.25781,1.94532 -10e-6,1.46875 0.15624,2.75781 0.46875,3.86718 0.29686,1.04688 1.03905,2.25001 2.22656,3.60938 1.18749,1.34375 2.28905,2.25781 3.30469,2.74219 1.73435,0.82812 3.98435,1.24218 6.75,1.24218 1.92185,0 3.44528,-0.14844 4.57031,-0.44531 1.3281,-0.35938 2.49216,-0.92969 3.49219,-1.71094 0.76559,-0.60937 1.57809,-1.4375 2.4375,-2.48437 0.99996,-1.21875 1.59371,-2.20312 1.78125,-2.95313 0.32809,-1.31249 0.49215,-2.0703 0.49218,-2.27343"
         style="font-size:48px;fill:#fce94f"
         id="path4649"
         inkscape:connector-curvature="0"
         sodipodi:nodetypes="ccccsccsccccscccccccccccccscccccccsccccc" />
    </g>
    <g
       transform="translate(-5.522085,9.64337)"
       id="g4671"
       style="font-size:48px;font-style:normal;font-variant:normal;font-weight:bold;font-stretch:normal;text-align:center;text-anchor:middle;fill:#f57900;fill-opacity:1;stroke:none;font-family:Symbola;-inkscape-font-specification:Symbola Bold">
      <path
         sodipodi:nodetypes="ccscccccc"
         inkscape:connector-curvature="0"
         id="path4673"
         style="font-size:24px;fill:#f57900"
         d="m 659.67303,643.01514 c -1.72657,-2e-5 -3.37891,-0.34768 -4.95703,-1.04297 -1.99219,-0.88283 -2.98828,-2.07033 -2.98828,-3.5625 0,-1.52345 0.98828,-2.71095 2.96484,-3.5625 1.54687,-0.66407 3.20703,-0.9961 4.98047,-0.99609 1.77343,-10e-6 3.46874,0.33592 5.08594,1.00781 2.08592,0.86718 3.12889,2.05858 3.1289,3.57422 -10e-6,1.46873 -1.04689,2.64451 -3.14062,3.52734 -1.64845,0.70311 -3.33985,1.05467 -5.07422,1.05469" />
    </g>
    <g
       style="font-size:48px;font-style:normal;font-variant:normal;font-weight:bold;font-stretch:normal;text-align:center;text-anchor:middle;fill:#fce94f;fill-opacity:1;stroke:none;font-family:Symbola;-inkscape-font-specification:Symbola Bold"
       id="text4634"
       transform="translate(-5.522085,9.64337)">
      <path
         d="m 659.67303,643.01514 c -1.72657,-2e-5 -3.37891,-0.34768 -4.95703,-1.04297 -1.99219,-0.88283 -2.98828,-2.07033 -2.98828,-3.5625 0,-1.52345 0.98828,-2.71095 2.96484,-3.5625 1.54687,-0.66407 3.20703,-0.9961 4.98047,-0.99609 1.77343,-10e-6 3.46874,0.33592 5.08594,1.00781 2.08592,0.86718 3.12889,2.05858 3.1289,3.57422 -10e-6,1.46873 -1.04689,2.64451 -3.14062,3.52734 -1.64845,0.70311 -3.33985,1.05467 -5.07422,1.05469 m 0,-1.00781 c 1.48437,-2e-5 2.93749,-0.25783 4.35937,-0.77344 1.86718,-0.67189 2.80077,-1.60548 2.80079,-2.80078 -2e-5,-1.16408 -0.85158,-2.1133 -2.55469,-2.84766 -1.3672,-0.59376 -2.72657,-0.89063 -4.07813,-0.89062 -0.11719,-10e-6 -0.22657,0.004 -0.32812,0.0117 l 0.0937,0 c 0.6328,-0.0391 1.27343,0.1367 1.92187,0.52734 0.73437,0.42968 1.10156,0.94921 1.10157,1.5586 -10e-6,0.75779 -0.53517,1.3242 -1.60547,1.69921 -0.76564,0.26561 -1.62501,0.39842 -2.57813,0.39844 -0.92969,-2e-5 -1.77344,-0.12111 -2.53125,-0.36328 -1.07813,-0.35158 -1.61719,-0.88673 -1.61719,-1.60547 0,-0.63283 0.46485,-1.19142 1.39454,-1.67578 -0.80469,0.10936 -1.54297,0.45702 -2.21485,1.04297 -0.73437,0.64061 -1.10156,1.34764 -1.10156,2.12109 0,1.20311 0.89453,2.14452 2.68359,2.82422 1.36719,0.51561 2.78515,0.77342 4.25391,0.77344 m 0.19922,-5.30859 c 1.16405,-2e-5 1.74608,-0.22268 1.74609,-0.66797 -10e-6,-0.23439 -0.2461,-0.41408 -0.73828,-0.53907 -0.34376,-0.086 -0.68751,-0.12892 -1.03125,-0.1289 -0.31251,-2e-5 -0.64454,0.0469 -0.99609,0.14062 -0.47657,0.1328 -0.71485,0.30858 -0.71485,0.52735 0,0.44529 0.57812,0.66795 1.73438,0.66797"
         style="font-size:24px;fill:#fce94f"
         id="path4646"
         inkscape:connector-curvature="0"
         sodipodi:nodetypes="ccsccccccccccccccccccsccscccccccsc" />
    </g>
    <path
       sodipodi:type="arc"
       style="fill:#2e3436;fill-opacity:1;stroke:none"
       id="path4693"
       sodipodi:cx="29"
       sodipodi:cy="21.5"
       sodipodi:rx="2"
       sodipodi:ry="3.5"
       d="m 31,21.5 a 2,3.5 0 1 1 -4,0 2,3.5 0 1 1 4,0 z"
       transform="translate(625.28571,626.07648)" />
  </g>
</svg>
