<?xml version="1.0" encoding="UTF-8" standalone="no"?>
<!-- Created with Inkscape (http://www.inkscape.org/) -->

<svg
   xmlns:dc="http://purl.org/dc/elements/1.1/"
   xmlns:cc="http://creativecommons.org/ns#"
   xmlns:rdf="http://www.w3.org/1999/02/22-rdf-syntax-ns#"
   xmlns:svg="http://www.w3.org/2000/svg"
   xmlns="http://www.w3.org/2000/svg"
   xmlns:sodipodi="http://sodipodi.sourceforge.net/DTD/sodipodi-0.dtd"
   xmlns:inkscape="http://www.inkscape.org/namespaces/inkscape"
   width="58"
   height="64"
   id="svg3829"
   version="1.1"
   inkscape:version="0.48.4 r9939"
   sodipodi:docname="boart048svg.svg"
   inkscape:export-filename="/home/erlehmann/src/vcmi-data-libre/boart041.png"
   inkscape:export-xdpi="72"
   inkscape:export-ydpi="72">
  <defs
     id="defs3831" />
  <sodipodi:namedview
     id="base"
     pagecolor="#ffffff"
     bordercolor="#666666"
     borderopacity="1.0"
     inkscape:pageopacity="0.0"
     inkscape:pageshadow="2"
     inkscape:zoom="11.921875"
     inkscape:cx="29"
     inkscape:cy="32"
     inkscape:document-units="px"
     inkscape:current-layer="layer1"
     showgrid="false"
     fit-margin-top="0"
     fit-margin-left="0"
     fit-margin-right="0"
     fit-margin-bottom="0"
     inkscape:window-width="1396"
     inkscape:window-height="987"
     inkscape:window-x="0"
     inkscape:window-y="61"
     inkscape:window-maximized="0">
    <inkscape:grid
       type="xygrid"
       id="grid3848"
       empspacing="5"
       visible="true"
       enabled="true"
       snapvisiblegridlinesonly="true" />
  </sodipodi:namedview>
  <metadata
     id="metadata3834">
    <rdf:RDF>
      <cc:Work
         rdf:about="">
        <dc:format>image/svg+xml</dc:format>
        <dc:type
           rdf:resource="http://purl.org/dc/dcmitype/StillImage" />
        <dc:title></dc:title>
      </cc:Work>
    </rdf:RDF>
  </metadata>
  <g
     inkscape:label="Ebene 1"
     inkscape:groupmode="layer"
     id="layer1"
     transform="translate(-625.28571,-626.07648)">
    <rect
       style="fill:#8f5902;fill-opacity:1;stroke:#332001;stroke-width:1;stroke-miterlimit:4;stroke-opacity:1;stroke-dasharray:none"
       id="rect3850"
       width="58"
       height="64"
       x="625.28571"
       y="626.07648" />
    <g
       style="font-size:48px;font-style:normal;font-variant:normal;font-weight:bold;font-stretch:normal;text-align:center;text-anchor:middle;fill:#edd400;fill-opacity:1;stroke:none;font-family:Symbola;-inkscape-font-specification:Symbola Bold"
       id="text4360"
       transform="matrix(0.96592583,-0.25881905,0.25881905,0.96592583,-151.34516,193.15122)">
      <path
         d="m 672.23878,669.8303 -2.01562,2.03907 -8.8125,-8.78907 c 0.42184,-0.46874 1.05465,-1.18749 1.89843,-2.15625 l 8.92969,8.90625 m -8.25,-10.94531 -4.73437,4.73438 -8.78907,-8.78907 4.61719,-4.73437 8.90625,8.78906 m -9.35156,-9.84375 -5.08594,5.22656 -6.46875,-6.32812 5.10938,-5.10938 6.44531,6.21094 m 17.97656,22.00781 c -0.28129,0.26563 -0.67972,0.70313 -1.19531,1.3125 -4e-5,-0.0469 -0.0469,-0.14062 -0.14063,-0.28125 -0.0938,-0.14062 -0.14066,-0.27343 -0.14062,-0.39843 -4e-5,-0.15625 0.0937,-0.32813 0.28125,-0.51563 0.18746,-0.1875 0.35934,-0.28125 0.51562,-0.28125 0.0781,0 0.18746,0.0313 0.32813,0.0937 0.15621,0.0469 0.2734,0.0703 0.35156,0.0703"
         style="font-weight:normal;fill:#edd400;-inkscape-font-specification:Symbola Bold"
         id="path3025"
         inkscape:connector-curvature="0"
         sodipodi:nodetypes="ccccccccccccccccccccscc" />
    </g>
  </g>
</svg>
