<?xml version="1.0" encoding="UTF-8" standalone="no"?>
<!-- Created with Inkscape (http://www.inkscape.org/) -->

<svg
   xmlns:dc="http://purl.org/dc/elements/1.1/"
   xmlns:cc="http://creativecommons.org/ns#"
   xmlns:rdf="http://www.w3.org/1999/02/22-rdf-syntax-ns#"
   xmlns:svg="http://www.w3.org/2000/svg"
   xmlns="http://www.w3.org/2000/svg"
   xmlns:sodipodi="http://sodipodi.sourceforge.net/DTD/sodipodi-0.dtd"
   xmlns:inkscape="http://www.inkscape.org/namespaces/inkscape"
   width="58"
   height="64"
   id="svg3829"
   version="1.1"
   inkscape:version="0.48.4 r9939"
   sodipodi:docname="boart047.svg"
   inkscape:export-filename="/home/erlehmann/src/vcmi-data-libre/boart041.png"
   inkscape:export-xdpi="72"
   inkscape:export-ydpi="72">
  <defs
     id="defs3831" />
  <sodipodi:namedview
     id="base"
     pagecolor="#ffffff"
     bordercolor="#666666"
     borderopacity="1.0"
     inkscape:pageopacity="0.0"
     inkscape:pageshadow="2"
     inkscape:zoom="8"
     inkscape:cx="53.537734"
     inkscape:cy="20.714683"
     inkscape:document-units="px"
     inkscape:current-layer="layer1"
     showgrid="false"
     fit-margin-top="0"
     fit-margin-left="0"
     fit-margin-right="0"
     fit-margin-bottom="0"
     inkscape:window-width="1396"
     inkscape:window-height="987"
     inkscape:window-x="0"
     inkscape:window-y="61"
     inkscape:window-maximized="0">
    <inkscape:grid
       type="xygrid"
       id="grid3848"
       empspacing="5"
       visible="true"
       enabled="true"
       snapvisiblegridlinesonly="true" />
  </sodipodi:namedview>
  <metadata
     id="metadata3834">
    <rdf:RDF>
      <cc:Work
         rdf:about="">
        <dc:format>image/svg+xml</dc:format>
        <dc:type
           rdf:resource="http://purl.org/dc/dcmitype/StillImage" />
        <dc:title />
      </cc:Work>
    </rdf:RDF>
  </metadata>
  <g
     inkscape:label="Ebene 1"
     inkscape:groupmode="layer"
     id="layer1"
     transform="translate(-625.28571,-626.07648)">
    <rect
       style="fill:#8f5902;fill-opacity:1;stroke:#332001;stroke-width:1;stroke-miterlimit:4;stroke-opacity:1;stroke-dasharray:none"
       id="rect3850"
       width="58"
       height="64"
       x="625.28571"
       y="626.07648" />
    <g
       style="font-size:48px;font-style:normal;font-variant:normal;font-weight:bold;font-stretch:normal;text-align:center;text-anchor:middle;fill:#edd400;fill-opacity:1;stroke:none;font-family:Symbola;-inkscape-font-specification:Symbola Bold"
       id="text4360">
      <path
         style="font-weight:normal;fill:#edd400;-inkscape-font-specification:Symbola Bold"
         d="m 654.16852,639.83038 c -0.26565,0.0782 -0.39846,0.24222 -0.39844,0.49219 -2e-5,0.12503 0.0469,0.25003 0.14063,0.375 -0.0313,3e-5 -0.1094,-0.0312 -0.23438,-0.0937 -0.10939,-0.0781 -0.21877,-0.11715 -0.32812,-0.11719 -0.0938,4e-5 -0.20315,0.0391 -0.32813,0.11719 -0.10939,0.0625 -0.17971,0.0938 -0.21094,0.0937 0.0469,-0.0937 0.12498,-0.23434 0.23438,-0.42187 0.0156,-0.15622 -0.14846,-0.32028 -0.49219,-0.49219 0.0625,0.0157 0.13279,0.0235 0.21094,0.0234 0.31248,3e-5 0.5156,-0.2656 0.60937,-0.79688 -2e-5,0.23441 0.0781,0.43753 0.23438,0.60938 0.15623,0.1719 0.34373,0.24222 0.5625,0.21093"
         id="path3007" />
      <path
         style="font-weight:normal;fill:#edd400;-inkscape-font-specification:Symbola Bold"
         d="m 648.05133,639.43191 c -0.34376,0.14065 -0.51564,0.42972 -0.51562,0.86718 -2e-5,0.12504 0.0312,0.2266 0.0937,0.30469 -0.40627,-0.23434 -0.64845,-0.35153 -0.72657,-0.35156 -0.17188,3e-5 -0.41407,0.15628 -0.72656,0.46875 0.0781,-0.17184 0.1953,-0.42966 0.35156,-0.77344 -0.14063,-0.10934 -0.34376,-0.28903 -0.60937,-0.53906 0.0781,0.0157 0.14061,0.0235 0.1875,0.0234 0.51561,3e-5 0.79686,-0.34372 0.84375,-1.03125 -10e-6,0.81253 0.36717,1.15628 1.10156,1.03125"
         id="path3005" />
      <path
         style="font-weight:normal;fill:#fcaf3e;-inkscape-font-specification:Symbola Bold"
         d="m 672.23878,669.8303 -2.01562,2.03907 -8.8125,-8.78907 c 0.42184,-0.46874 1.05465,-1.18749 1.89843,-2.15625 l 8.92969,8.90625"
         id="path3003" />
      <path
         style="font-weight:normal;fill:#fcaf3e;-inkscape-font-specification:Symbola Bold"
         d="m 663.98878,658.88499 -4.73437,4.73438 -8.78907,-8.78907 4.61719,-4.73437 8.90625,8.78906"
         id="path3001" />
      <path
         style="font-weight:normal;fill:#fcaf3e;-inkscape-font-specification:Symbola Bold"
         d="m 654.63722,649.04124 -5.08594,5.22656 -6.46875,-6.32812 5.10938,-5.10938 6.44531,6.21094"
         id="path2999" />
      <path
         style="font-weight:normal;fill:#fcaf3e;-inkscape-font-specification:Symbola Bold"
         d="m 672.61378,671.04905 c -0.28129,0.26563 -0.67972,0.70313 -1.19531,1.3125 -4e-5,-0.0469 -0.0469,-0.14062 -0.14063,-0.28125 -0.0938,-0.14062 -0.14066,-0.27343 -0.14062,-0.39843 -4e-5,-0.15625 0.0937,-0.32813 0.28125,-0.51563 0.18746,-0.1875 0.35934,-0.28125 0.51562,-0.28125 0.0781,0 0.18746,0.0313 0.32813,0.0937 0.15621,0.0469 0.2734,0.0703 0.35156,0.0703"
         id="path2997" />
      <path
         style="font-weight:normal;fill:#edd400;-inkscape-font-specification:Symbola Bold"
         d="m 642.07472,642.12712 -0.58594,0.63281 c 0.0469,0.17191 0.11718,0.39847 0.21094,0.67969 -0.15626,-0.12497 -0.40626,-0.28903 -0.75,-0.49219 -0.15626,0.0938 -0.38282,0.25784 -0.67969,0.49219 0.14062,-0.17185 0.21093,-0.37497 0.21094,-0.60938 -10e-6,-0.32809 -0.19532,-0.56247 -0.58594,-0.70312 0.10937,0.0313 0.21874,0.0469 0.32813,0.0469 0.60936,3e-5 0.83593,-0.31247 0.67968,-0.9375 0.10937,0.20316 0.22656,0.4141 0.35157,0.63282 0.12499,0.21878 0.29686,0.32815 0.51562,0.32812 0.10937,3e-5 0.21093,-0.0234 0.30469,-0.0703"
         id="path2995" />
      <path
         style="font-weight:normal;fill:#edd400;-inkscape-font-specification:Symbola Bold"
         d="m 638.09034,639.17403 c -0.34375,0.23441 -0.51563,0.48441 -0.51562,0.75 -10e-6,0.18754 0.0703,0.36722 0.21094,0.53907 -0.17188,-0.10935 -0.4297,-0.2656 -0.77344,-0.46875 -0.15625,0.0938 -0.38282,0.25784 -0.67969,0.49218 0.0313,-0.18746 0.10937,-0.45309 0.23438,-0.79687 -0.14063,-0.10934 -0.34376,-0.28122 -0.60938,-0.51563 0.0781,0.0469 0.15625,0.0703 0.23438,0.0703 0.20312,3e-5 0.39062,-0.10153 0.5625,-0.30469 0.17187,-0.21872 0.24999,-0.43747 0.23437,-0.65625 0.14062,0.64066 0.39843,0.96097 0.77344,0.96094 0.10937,3e-5 0.21874,-0.0234 0.32812,-0.0703"
         id="path2993" />
      <path
         style="font-weight:normal;fill:#edd400;-inkscape-font-specification:Symbola Bold"
         d="m 639.33253,647.91622 c -0.29688,0.14065 -0.44532,0.37503 -0.44531,0.70313 -10e-6,0.14064 0.0391,0.25783 0.11719,0.35156 -0.23438,-0.23435 -0.43751,-0.35154 -0.60938,-0.35156 -0.0625,2e-5 -0.21094,0.11721 -0.44531,0.35156 -10e-6,-0.0625 0.0156,-0.1406 0.0469,-0.23438 0.0313,-0.10935 0.0469,-0.19528 0.0469,-0.25781 -10e-6,-0.21872 -0.16407,-0.40622 -0.49219,-0.5625 0.0781,0.0156 0.14062,0.0235 0.1875,0.0234 0.39062,2e-5 0.64062,-0.22654 0.75,-0.67969 0,0.64065 0.28125,0.8594 0.84375,0.65625"
         id="path2991" />
      <path
         style="font-weight:normal;fill:#e9b96e;-inkscape-font-specification:Symbola Bold"
         d="m 664.97321,677.86931 -2.67188,0 -6.84375,-17.32032 -6.25781,17.32032 -2.67188,0 6.9375,-19.28907 c 1.31248,1.20314 3.24998,3.10158 5.8125,5.69532 l 5.69532,13.59375"
         id="path2987" />
    </g>
  </g>
</svg>
