<?xml version="1.0" encoding="UTF-8" standalone="no"?>
<!-- Created with Inkscape (http://www.inkscape.org/) -->

<svg
   xmlns:dc="http://purl.org/dc/elements/1.1/"
   xmlns:cc="http://creativecommons.org/ns#"
   xmlns:rdf="http://www.w3.org/1999/02/22-rdf-syntax-ns#"
   xmlns:svg="http://www.w3.org/2000/svg"
   xmlns="http://www.w3.org/2000/svg"
   xmlns:sodipodi="http://sodipodi.sourceforge.net/DTD/sodipodi-0.dtd"
   xmlns:inkscape="http://www.inkscape.org/namespaces/inkscape"
   width="32"
   height="32"
   id="svg2"
   version="1.1"
   inkscape:version="0.48.4 r9939"
   sodipodi:docname="00_03.svg">
  <defs
     id="defs4">
    <filter
       inkscape:collect="always"
       id="filter6004"
       x="-0.192"
       width="1.384"
       y="-0.192"
       height="1.384">
      <feGaussianBlur
         inkscape:collect="always"
         stdDeviation="0.08"
         id="feGaussianBlur6006" />
    </filter>
    <filter
       inkscape:collect="always"
       id="filter6010"
       x="-0.192"
       width="1.384"
       y="-0.192"
       height="1.384">
      <feGaussianBlur
         inkscape:collect="always"
         stdDeviation="0.08"
         id="feGaussianBlur6012" />
    </filter>
    <filter
       inkscape:collect="always"
       id="filter6016"
       x="-0.192"
       width="1.384"
       y="-0.192"
       height="1.384">
      <feGaussianBlur
         inkscape:collect="always"
         stdDeviation="0.08"
         id="feGaussianBlur6018" />
    </filter>
    <filter
       inkscape:collect="always"
       id="filter6028"
       x="-0.384"
       width="1.768"
       y="-0.384"
       height="1.768">
      <feGaussianBlur
         inkscape:collect="always"
         stdDeviation="0.16"
         id="feGaussianBlur6030" />
    </filter>
    <filter
       inkscape:collect="always"
       id="filter6042"
       x="-0.384"
       width="1.768"
       y="-0.384"
       height="1.768">
      <feGaussianBlur
         inkscape:collect="always"
         stdDeviation="0.32"
         id="feGaussianBlur6044" />
    </filter>
    <filter
       inkscape:collect="always"
       id="filter6048"
       x="-0.192"
       width="1.384"
       y="-0.192"
       height="1.384">
      <feGaussianBlur
         inkscape:collect="always"
         stdDeviation="0.08"
         id="feGaussianBlur6050" />
    </filter>
    <filter
       inkscape:collect="always"
       id="filter6070"
       x="-0.672"
       width="2.344"
       y="-0.896"
       height="2.792">
      <feGaussianBlur
         inkscape:collect="always"
         stdDeviation="5.6"
         id="feGaussianBlur6072" />
    </filter>
  </defs>
  <sodipodi:namedview
     id="base"
     pagecolor="#ffffff"
     bordercolor="#666666"
     borderopacity="1.0"
     inkscape:pageopacity="0.0"
     inkscape:pageshadow="2"
     inkscape:zoom="22.625"
     inkscape:cx="5.5027624"
     inkscape:cy="17.582744"
     inkscape:document-units="px"
     inkscape:current-layer="layer1"
     showgrid="true"
     showguides="true"
     inkscape:guide-bbox="true">
    <inkscape:grid
       type="xygrid"
       id="grid2985"
       empspacing="5"
       visible="true"
       enabled="true"
       snapvisiblegridlinesonly="true" />
  </sodipodi:namedview>
  <metadata
     id="metadata7">
    <rdf:RDF>
      <cc:Work
         rdf:about="">
        <dc:format>image/svg+xml</dc:format>
        <dc:type
           rdf:resource="http://purl.org/dc/dcmitype/StillImage" />
        <dc:title />
      </cc:Work>
    </rdf:RDF>
  </metadata>
  <g
     inkscape:label="Ebene 1"
     inkscape:groupmode="layer"
     id="layer1"
     transform="translate(0,-1020.3622)">
    <rect
       style="opacity:1;fill:#000000;stroke:none;stroke-width:1;stroke-linecap:butt;stroke-linejoin:miter;stroke-miterlimit:4;stroke-opacity:1;stroke-dasharray:none;fill-opacity:1"
       id="rect2987"
       width="32"
       height="32"
       x="0"
       y="0"
       transform="translate(0,1020.3622)" />
    <path
       style="fill:#204a87;fill-opacity:1;stroke:none;filter:url(#filter6070);opacity:0.15"
       d="m 5,17 0,-5 5,-5 5,0 5,-5 5,5 0,5 -5,5 -5,-5 -5,0 z"
       id="path6052"
       inkscape:connector-curvature="0"
       transform="translate(0,1020.3622)" />
    <path
       sodipodi:type="arc"
       style="opacity:1;fill:#f36161;fill-opacity:1;stroke:none;filter:url(#filter6028)"
       id="path5996"
       sodipodi:cx="10.5"
       sodipodi:cy="21.5"
       sodipodi:rx="0.5"
       sodipodi:ry="0.5"
       d="M 11,21.5 C 11,21.776142 10.776142,22 10.5,22 10.223858,22 10,21.776142 10,21.5 10,21.223858 10.223858,21 10.5,21 c 0.276142,0 0.5,0.223858 0.5,0.5 z"
       transform="translate(0,1020.3622)" />
    <path
       sodipodi:type="arc"
       style="fill:#555753;fill-opacity:1;stroke:none;filter:url(#filter6004)"
       id="path6002"
       sodipodi:cx="5.5"
       sodipodi:cy="26.5"
       sodipodi:rx="0.5"
       sodipodi:ry="0.5"
       d="M 6,26.5 C 6,26.776142 5.7761424,27 5.5,27 5.2238576,27 5,26.776142 5,26.5 5,26.223858 5.2238576,26 5.5,26 5.7761424,26 6,26.223858 6,26.5 z"
       transform="translate(0,1020.3622)" />
    <path
       sodipodi:type="arc"
       style="fill:#888a85;fill-opacity:1;stroke:none;filter:url(#filter6010)"
       id="path6008"
       sodipodi:cx="15.5"
       sodipodi:cy="12.5"
       sodipodi:rx="0.5"
       sodipodi:ry="0.5"
       d="M 16,12.5 C 16,12.776142 15.776142,13 15.5,13 15.223858,13 15,12.776142 15,12.5 15,12.223858 15.223858,12 15.5,12 c 0.276142,0 0.5,0.223858 0.5,0.5 z"
       transform="translate(0,1020.3622)" />
    <path
       sodipodi:type="arc"
       style="fill:#9ebdde;fill-opacity:1;stroke:none;filter:url(#filter6016)"
       id="path6014"
       sodipodi:cx="12.5"
       sodipodi:cy="4.5"
       sodipodi:rx="0.5"
       sodipodi:ry="0.5"
       d="M 13,4.5 C 13,4.7761424 12.776142,5 12.5,5 12.223858,5 12,4.7761424 12,4.5 12,4.2238576 12.223858,4 12.5,4 12.776142,4 13,4.2238576 13,4.5 z"
       transform="translate(0,1020.3622)" />
    <path
       sodipodi:type="arc"
       style="fill:#ffffff;fill-opacity:1;stroke:none;filter:url(#filter6042)"
       id="path6034"
       sodipodi:cx="26"
       sodipodi:cy="7"
       sodipodi:rx="1"
       sodipodi:ry="1"
       d="m 27,7 c 0,0.5522847 -0.447715,1 -1,1 -0.552285,0 -1,-0.4477153 -1,-1 0,-0.5522847 0.447715,-1 1,-1 0.552285,0 1,0.4477153 1,1 z"
       transform="matrix(0.75,0,0,0.75,6.5,1022.1122)" />
    <path
       sodipodi:type="arc"
       style="fill:#eeeeec;fill-opacity:1;stroke:none;filter:url(#filter6048)"
       id="path6046"
       sodipodi:cx="25.5"
       sodipodi:cy="16.5"
       sodipodi:rx="0.5"
       sodipodi:ry="0.5"
       d="M 26,16.5 C 26,16.776142 25.776142,17 25.5,17 25.223858,17 25,16.776142 25,16.5 25,16.223858 25.223858,16 25.5,16 c 0.276142,0 0.5,0.223858 0.5,0.5 z"
       transform="translate(0,1020.3622)" />
  </g>
</svg>
