<?xml version="1.0" encoding="UTF-8" standalone="no"?>
<!-- Created with Inkscape (http://www.inkscape.org/) -->

<svg
   xmlns:dc="http://purl.org/dc/elements/1.1/"
   xmlns:cc="http://creativecommons.org/ns#"
   xmlns:rdf="http://www.w3.org/1999/02/22-rdf-syntax-ns#"
   xmlns:svg="http://www.w3.org/2000/svg"
   xmlns="http://www.w3.org/2000/svg"
   xmlns:sodipodi="http://sodipodi.sourceforge.net/DTD/sodipodi-0.dtd"
   xmlns:inkscape="http://www.inkscape.org/namespaces/inkscape"
   width="32"
   height="32"
   id="svg2"
   version="1.1"
   inkscape:version="0.48.4 r9939"
   sodipodi:docname="00_01.svg">
  <defs
     id="defs4">
    <filter
       inkscape:collect="always"
       id="filter5828"
       x="-0.192"
       width="1.384"
       y="-0.192"
       height="1.384">
      <feGaussianBlur
         inkscape:collect="always"
         stdDeviation="0.08"
         id="feGaussianBlur5830" />
    </filter>
    <filter
       inkscape:collect="always"
       id="filter5834"
       x="-0.192"
       width="1.384"
       y="-0.192"
       height="1.384">
      <feGaussianBlur
         inkscape:collect="always"
         stdDeviation="0.08"
         id="feGaussianBlur5836" />
    </filter>
    <filter
       inkscape:collect="always"
       id="filter5846"
       x="-0.192"
       width="1.384"
       y="-0.192"
       height="1.384">
      <feGaussianBlur
         inkscape:collect="always"
         stdDeviation="0.16"
         id="feGaussianBlur5848" />
    </filter>
    <filter
       inkscape:collect="always"
       id="filter5862"
       x="-0.768"
       width="2.536"
       y="-0.768"
       height="2.536">
      <feGaussianBlur
         inkscape:collect="always"
         stdDeviation="4.8"
         id="feGaussianBlur5864" />
    </filter>
    <filter
       inkscape:collect="always"
       id="filter5868"
       x="-0.192"
       width="1.384"
       y="-0.192"
       height="1.384">
      <feGaussianBlur
         inkscape:collect="always"
         stdDeviation="0.08"
         id="feGaussianBlur5870" />
    </filter>
    <filter
       inkscape:collect="always"
       id="filter5874"
       x="-0.192"
       width="1.384"
       y="-0.192"
       height="1.384">
      <feGaussianBlur
         inkscape:collect="always"
         stdDeviation="0.08"
         id="feGaussianBlur5876" />
    </filter>
    <filter
       inkscape:collect="always"
       id="filter5878"
       x="-0.192"
       width="1.384"
       y="-0.192"
       height="1.384">
      <feGaussianBlur
         inkscape:collect="always"
         stdDeviation="0.16"
         id="feGaussianBlur5880" />
    </filter>
  </defs>
  <sodipodi:namedview
     id="base"
     pagecolor="#ffffff"
     bordercolor="#666666"
     borderopacity="1.0"
     inkscape:pageopacity="0.0"
     inkscape:pageshadow="2"
     inkscape:zoom="22.625"
     inkscape:cx="5.5027624"
     inkscape:cy="12.278876"
     inkscape:document-units="px"
     inkscape:current-layer="layer1"
     showgrid="true"
     showguides="true"
     inkscape:guide-bbox="true">
    <inkscape:grid
       type="xygrid"
       id="grid2985"
       empspacing="5"
       visible="true"
       enabled="true"
       snapvisiblegridlinesonly="true" />
  </sodipodi:namedview>
  <metadata
     id="metadata7">
    <rdf:RDF>
      <cc:Work
         rdf:about="">
        <dc:format>image/svg+xml</dc:format>
        <dc:type
           rdf:resource="http://purl.org/dc/dcmitype/StillImage" />
        <dc:title />
      </cc:Work>
    </rdf:RDF>
  </metadata>
  <g
     inkscape:label="Ebene 1"
     inkscape:groupmode="layer"
     id="layer1"
     transform="translate(0,-1020.3622)">
    <rect
       style="opacity:1;fill:#000000;stroke:none;stroke-width:1;stroke-linecap:butt;stroke-linejoin:miter;stroke-miterlimit:4;stroke-opacity:1;stroke-dasharray:none;fill-opacity:1"
       id="rect2987"
       width="32"
       height="32"
       x="0"
       y="0"
       transform="translate(0,1020.3622)" />
    <path
       style="fill:#eeeeec;fill-opacity:1;stroke:none;opacity:0.025;filter:url(#filter5862)"
       d="m 15,22 5,5 5,0 5,-5 0,-5 -5,-5 -5,0 -5,5 z"
       id="path5852"
       inkscape:connector-curvature="0"
       transform="translate(0,1020.3622)" />
    <path
       sodipodi:type="arc"
       style="fill:#9ebdde;fill-opacity:1;stroke:none;filter:url(#filter5828)"
       id="path5826"
       sodipodi:cx="5.5"
       sodipodi:cy="15.5"
       sodipodi:rx="0.5"
       sodipodi:ry="0.5"
       d="M 6,15.5 C 6,15.776142 5.7761424,16 5.5,16 5.2238576,16 5,15.776142 5,15.5 5,15.223858 5.2238576,15 5.5,15 5.7761424,15 6,15.223858 6,15.5 z"
       transform="translate(0,1020.3622)" />
    <path
       sodipodi:type="arc"
       style="fill:#eeeeec;fill-opacity:1;stroke:none;filter:url(#filter5834)"
       id="path5832"
       sodipodi:cx="19.5"
       sodipodi:cy="16.5"
       sodipodi:rx="0.5"
       sodipodi:ry="0.5"
       d="M 20,16.5 C 20,16.776142 19.776142,17 19.5,17 19.223858,17 19,16.776142 19,16.5 19,16.223858 19.223858,16 19.5,16 c 0.276142,0 0.5,0.223858 0.5,0.5 z"
       transform="translate(0,1020.3622)" />
    <path
       sodipodi:type="arc"
       style="fill:#4d82c7;fill-opacity:1;stroke:none;filter:url(#filter5846)"
       id="path5844"
       sodipodi:cx="19"
       sodipodi:cy="22"
       sodipodi:rx="1"
       sodipodi:ry="1"
       d="m 20,22 c 0,0.552285 -0.447715,1 -1,1 -0.552285,0 -1,-0.447715 -1,-1 0,-0.552285 0.447715,-1 1,-1 0.552285,0 1,0.447715 1,1 z"
       transform="translate(0,1020.3622)" />
    <path
       sodipodi:type="arc"
       style="fill:#f36161;fill-opacity:1;stroke:none;filter:url(#filter5878)"
       id="path5850"
       sodipodi:cx="10"
       sodipodi:cy="11"
       sodipodi:rx="1"
       sodipodi:ry="1"
       d="m 11,11 c 0,0.552285 -0.447715,1 -1,1 -0.5522847,0 -1,-0.447715 -1,-1 0,-0.552285 0.4477153,-1 1,-1 0.552285,0 1,0.447715 1,1 z"
       transform="matrix(0.75,0,0,0.75,2.5,1023.1122)" />
    <path
       sodipodi:type="arc"
       style="opacity:1;fill:#d3d7cf;fill-opacity:1;stroke:none;filter:url(#filter5868)"
       id="path5866"
       sodipodi:cx="24.5"
       sodipodi:cy="6.5"
       sodipodi:rx="0.5"
       sodipodi:ry="0.5"
       d="M 25,6.5 C 25,6.7761424 24.776142,7 24.5,7 24.223858,7 24,6.7761424 24,6.5 24,6.2238576 24.223858,6 24.5,6 24.776142,6 25,6.2238576 25,6.5 z"
       transform="translate(0,1020.3622)" />
    <path
       sodipodi:type="arc"
       style="opacity:1;fill:#eeeeec;fill-opacity:1;stroke:none;filter:url(#filter5874)"
       id="path5872"
       sodipodi:cx="9.5"
       sodipodi:cy="26.5"
       sodipodi:rx="0.5"
       sodipodi:ry="0.5"
       d="M 10,26.5 C 10,26.776142 9.7761424,27 9.5,27 9.2238576,27 9,26.776142 9,26.5 9,26.223858 9.2238576,26 9.5,26 9.7761424,26 10,26.223858 10,26.5 z"
       transform="translate(0,1020.3622)" />
  </g>
</svg>
