<?xml version="1.0" encoding="UTF-8" standalone="no"?>
<!-- Created with Inkscape (http://www.inkscape.org/) -->

<svg
   xmlns:dc="http://purl.org/dc/elements/1.1/"
   xmlns:cc="http://creativecommons.org/ns#"
   xmlns:rdf="http://www.w3.org/1999/02/22-rdf-syntax-ns#"
   xmlns:svg="http://www.w3.org/2000/svg"
   xmlns="http://www.w3.org/2000/svg"
   xmlns:sodipodi="http://sodipodi.sourceforge.net/DTD/sodipodi-0.dtd"
   xmlns:inkscape="http://www.inkscape.org/namespaces/inkscape"
   width="173"
   height="110"
   id="svg3009"
   version="1.1"
   inkscape:version="0.48.4 r9939"
   sodipodi:docname="00_00.svg">
  <defs
     id="defs3011" />
  <sodipodi:namedview
     id="base"
     pagecolor="#ffffff"
     bordercolor="#666666"
     borderopacity="1.0"
     inkscape:pageopacity="0.0"
     inkscape:pageshadow="2"
     inkscape:zoom="2.8284271"
     inkscape:cx="125.33332"
     inkscape:cy="61.18272"
     inkscape:document-units="px"
     inkscape:current-layer="layer1"
     showgrid="false"
     fit-margin-top="0"
     fit-margin-left="0"
     fit-margin-right="0"
     fit-margin-bottom="0"
     inkscape:window-width="1396"
     inkscape:window-height="987"
     inkscape:window-x="0"
     inkscape:window-y="61"
     inkscape:window-maximized="0">
    <inkscape:grid
       type="xygrid"
       id="grid3034"
       empspacing="5"
       visible="true"
       enabled="true"
       snapvisiblegridlinesonly="true" />
  </sodipodi:namedview>
  <metadata
     id="metadata3014">
    <rdf:RDF>
      <cc:Work
         rdf:about="">
        <dc:format>image/svg+xml</dc:format>
        <dc:type
           rdf:resource="http://purl.org/dc/dcmitype/StillImage" />
        <dc:title></dc:title>
      </cc:Work>
    </rdf:RDF>
  </metadata>
  <g
     inkscape:label="Ebene 1"
     inkscape:groupmode="layer"
     id="layer1"
     transform="translate(-633.5,-663.07648)">
    <rect
       style="fill:#00ffff;fill-opacity:1;stroke:none"
       id="rect3028"
       width="175"
       height="110"
       x="633.5"
       y="663.07648" />
    <path
       sodipodi:type="arc"
       style="fill:#5c3566;fill-opacity:1;stroke:none"
       id="path3847"
       sodipodi:cx="60"
       sodipodi:cy="90"
       sodipodi:rx="30"
       sodipodi:ry="20"
       d="m 90,90 a 30,20 0 1 1 -60,0 30,20 0 1 1 60,0 z"
       transform="translate(633.5,663.07648)" />
    <path
       sodipodi:type="arc"
       style="fill:#5c3566;fill-opacity:1;stroke:none"
       id="path3061"
       sodipodi:cx="75"
       sodipodi:cy="32.5"
       sodipodi:rx="35"
       sodipodi:ry="32.5"
       d="m 110,32.5 a 35,32.5 0 1 1 -70,0 35,32.5 0 1 1 70,0 z"
       transform="translate(633.5,663.07648)" />
    <path
       sodipodi:type="arc"
       style="fill:#5c3566;fill-opacity:1;stroke:none"
       id="path3849"
       sodipodi:cx="112.5"
       sodipodi:cy="87.5"
       sodipodi:rx="32.5"
       sodipodi:ry="22.5"
       d="m 145,87.5 a 32.5,22.5 0 1 1 -65,0 32.5,22.5 0 1 1 65,0 z"
       transform="translate(633.5,663.07648)" />
    <path
       sodipodi:type="arc"
       style="fill:#5c3566;fill-opacity:1;stroke:none"
       id="path3063"
       sodipodi:cx="112.5"
       sodipodi:cy="30"
       sodipodi:rx="27.5"
       sodipodi:ry="25"
       d="m 140,30 a 27.5,25 0 1 1 -55,0 27.5,25 0 1 1 55,0 z"
       transform="translate(633.5,663.07648)" />
    <path
       sodipodi:type="arc"
       style="fill:#5c3566;fill-opacity:1;stroke:none"
       id="path3851"
       sodipodi:cx="82.5"
       sodipodi:cy="70"
       sodipodi:rx="47.5"
       sodipodi:ry="15"
       d="m 130,70 a 47.5,15 0 1 1 -95,0 47.5,15 0 1 1 95,0 z"
       transform="translate(633.5,663.07648)" />
    <path
       sodipodi:type="arc"
       style="fill:#5c3566;fill-opacity:1;stroke:none"
       id="path3065"
       sodipodi:cx="142.5"
       sodipodi:cy="55"
       sodipodi:rx="27.5"
       sodipodi:ry="25"
       d="m 170,55 a 27.5,25 0 1 1 -55,0 27.5,25 0 1 1 55,0 z"
       transform="translate(633.5,663.07648)" />
    <path
       sodipodi:type="arc"
       style="fill:#5c3566;fill-opacity:1;stroke:none"
       id="path3069"
       sodipodi:cx="37.5"
       sodipodi:cy="55"
       sodipodi:rx="32.5"
       sodipodi:ry="25"
       d="M 70,55 A 32.5,25 0 1 1 5,55 32.5,25 0 1 1 70,55 z"
       transform="translate(633.5,663.07648)" />
    <g
       transform="matrix(0.8660254,0.5,-0.5,0.8660254,-2,2)"
       style="font-size:48px;font-style:normal;font-variant:normal;font-weight:bold;font-stretch:normal;text-align:center;text-anchor:middle;fill:#fce94f;fill-opacity:1;stroke:none;font-family:Symbola;-inkscape-font-specification:Symbola Bold"
       id="text3857">
      <g
         id="g3872">
        <text
           id="text3071"
           y="738.73077"
           x="720.03516"
           style="font-size:72px;font-style:normal;font-variant:normal;font-weight:bold;font-stretch:normal;text-align:center;text-anchor:middle;fill:#000000;fill-opacity:1;stroke:none;font-family:Symbola;-inkscape-font-specification:Symbola Bold"
           xml:space="preserve"
           transform="matrix(0.86602541,-0.5,0.5,0.86602541,0,0)"><tspan
             style="font-size:72px;fill:#000000;fill-opacity:1"
             y="738.73077"
             x="720.03516"
             id="tspan3073"
             sodipodi:role="line">🎩</tspan></text>
        <text
           id="text3030"
           y="728.07648"
           x="718.5"
           style="font-size:36px;font-style:normal;font-variant:normal;font-weight:bold;font-stretch:normal;text-align:center;text-anchor:middle;fill:#fcaf3e;fill-opacity:1;stroke:none;font-family:Symbola;-inkscape-font-specification:Symbola Bold"
           xml:space="preserve"
           transform="matrix(0.86602541,-0.5,0.5,0.86602541,0,0)"><tspan
             style="font-size:36px;font-weight:bold;fill:#fcaf3e;-inkscape-font-specification:Symbola Bold"
             y="728.07648"
             x="718.5"
             id="tspan3032"
             sodipodi:role="line">𝐂𝐑𝐄𝐃𝐈𝐓𝐒</tspan></text>
        <text
           id="text3843"
           y="763.72882"
           x="692"
           style="font-size:96px;font-style:normal;font-variant:normal;font-weight:bold;font-stretch:normal;text-align:center;text-anchor:middle;fill:#eeeeec;fill-opacity:1;stroke:none;font-family:Symbola;-inkscape-font-specification:Symbola Bold"
           xml:space="preserve"
           transform="matrix(0.86602541,-0.5,0.5,0.86602541,0,0)"><tspan
             style="font-size:48px;fill:#eeeeec"
             y="763.72882"
             x="692"
             id="tspan3845"
             sodipodi:role="line">💀</tspan></text>
        <text
           id="text3853"
           y="763.79913"
           x="748.02344"
           style="font-size:72px;font-style:normal;font-variant:normal;font-weight:bold;font-stretch:normal;text-align:center;text-anchor:middle;fill:#73d216;fill-opacity:1;stroke:none;font-family:Symbola;-inkscape-font-specification:Symbola Bold"
           xml:space="preserve"
           transform="matrix(0.86602541,-0.5,0.5,0.86602541,0,0)"><tspan
             style="font-size:48px;fill:#73d216"
             y="763.79913"
             x="748.02344"
             id="tspan3855"
             sodipodi:role="line">🍹</tspan></text>
        <path
           sodipodi:nodetypes="ccccccccccccccccccccccccccccccccccccccccccccccccccccccccccccccccc"
           inkscape:connector-curvature="0"
           id="path3862"
           style="fill:#fce94f"
           d="m 952.55322,229.45108 -2.88281,2.78906 c -0.14064,-0.0937 -0.41408,-0.34372 -0.82031,-0.75 l 2.85937,-2.88281 0.84375,0.84375 m 2.53125,5.92969 -4.00781,0.49219 c 0.0469,-0.1406 0.0469,-0.49217 0,-1.05469 l 4.00781,-0.58594 c -0.0469,0.20315 -0.0469,0.58597 0,1.14844 m -8.15625,-9.23438 -0.58593,4.3125 -0.11719,0 -0.1875,0 c -0.59377,3e-5 -0.87502,3e-5 -0.84375,0 l 0.58594,-4.33593 c 0.12498,3e-5 0.32029,0.008 0.58593,0.0234 0.24999,4e-5 0.43749,4e-5 0.5625,0 m -4.42968,4.40625 c -0.23439,0.12503 -0.59376,0.30472 -1.07813,0.53907 l -1.85156,-3.63282 c 0.18749,-0.18746 0.49999,-0.39059 0.9375,-0.60937 l 1.99219,3.70312 m 6.42187,14.27344 c -1.75001,-1.96873 -2.62501,-2.9531 -2.625,-2.95312 -10e-6,-0.53123 0.60155,-1.37498 1.80469,-2.53125 1.21873,-1.17186 2.08592,-1.75779 2.60156,-1.75782 0.20311,3e-5 1.20311,0.82034 3,2.46094 m -5.53125,-1.42969 -0.84375,0.84375 c -0.48439,-0.1406 -0.96876,-0.28904 -1.45312,-0.44531 -0.48439,-0.17185 -0.87502,-0.48435 -1.17188,-0.9375 -0.0469,-0.0781 -0.14064,-0.3906 -0.28125,-0.9375 -0.0938,-0.34372 -0.29689,-0.54685 -0.60937,-0.60937 l 0.0703,-0.32813 c 0.17186,3e-5 0.35155,0.0469 0.53906,0.14063 0.0312,-0.0312 0.15624,-0.24217 0.375,-0.63282 0.0781,-0.10935 0.32811,-0.16403 0.75,-0.16406 -0.14064,0.56253 -0.21095,0.88284 -0.21094,0.96094 -1e-5,1.03127 0.9453,1.7344 2.83594,2.10937 m -8.36719,-5.39062 c -0.0156,0.0625 -0.17188,0.39065 -0.46875,0.98437 l -4.05468,-2.01562 c 0.12499,-0.23435 0.30468,-0.5781 0.53906,-1.03125 l 3.98437,2.0625 m -0.75,4.61719 -4.42968,0.75 c -0.0938,-0.49998 -0.16407,-0.88279 -0.21094,-1.14844 l 4.42969,-0.72656 0.21093,1.125 m 5.25,4.59375 -0.58593,4.3125 c -0.42189,-0.0625 -0.8047,-0.1328 -1.14844,-0.21094 l 0.58594,-4.10156 c 0.48436,0.0313 0.86717,0.0313 1.14843,0 m -3.42187,-1.3125 -3.02344,3.02343 -0.84375,-0.84375 3.02344,-2.95312 c 0.14061,0.0938 0.42186,0.35158 0.84375,0.77344 m 11.90625,-0.44532 -2.22656,-2.36718 c -0.31252,0.18752 -0.5469,0.36721 -0.70313,0.53906 l 2.36719,2.29687 c 0.18748,-0.12498 0.37498,-0.28123 0.5625,-0.46875" />
      </g>
    </g>
  </g>
</svg>
