<?xml version="1.0" encoding="UTF-8" standalone="no"?>
<!-- Created with Inkscape (http://www.inkscape.org/) -->

<svg
   xmlns:dc="http://purl.org/dc/elements/1.1/"
   xmlns:cc="http://creativecommons.org/ns#"
   xmlns:rdf="http://www.w3.org/1999/02/22-rdf-syntax-ns#"
   xmlns:svg="http://www.w3.org/2000/svg"
   xmlns="http://www.w3.org/2000/svg"
   xmlns:sodipodi="http://sodipodi.sourceforge.net/DTD/sodipodi-0.dtd"
   xmlns:inkscape="http://www.inkscape.org/namespaces/inkscape"
   width="160"
   height="96"
   id="svg2"
   version="1.1"
   inkscape:version="0.48.4 r9939"
   sodipodi:docname="00_01.svg">
  <defs
     id="defs4">
    <inkscape:path-effect
       effect="skeletal"
       id="path-effect4037"
       is_visible="true"
       pattern="M 0,0 0,10 10,5 z"
       copytype="single_stretched"
       prop_scale="1"
       scale_y_rel="false"
       spacing="0"
       normal_offset="0"
       tang_offset="0"
       prop_units="false"
       vertical_pattern="false"
       fuse_tolerance="0" />
    <inkscape:path-effect
       effect="skeletal"
       id="path-effect4029"
       is_visible="true"
       pattern="M 0,0 0,10 10,5 z"
       copytype="single_stretched"
       prop_scale="1"
       scale_y_rel="false"
       spacing="0"
       normal_offset="0"
       tang_offset="0"
       prop_units="false"
       vertical_pattern="false"
       fuse_tolerance="0" />
    <inkscape:path-effect
       effect="skeletal"
       id="path-effect4025"
       is_visible="true"
       pattern="M 0,0 0,10 10,5 z"
       copytype="single_stretched"
       prop_scale="1"
       scale_y_rel="false"
       spacing="0"
       normal_offset="0"
       tang_offset="0"
       prop_units="false"
       vertical_pattern="false"
       fuse_tolerance="0" />
    <inkscape:path-effect
       effect="skeletal"
       id="path-effect4021"
       is_visible="true"
       pattern="M 0,0 0,10 10,5 z"
       copytype="single_stretched"
       prop_scale="1"
       scale_y_rel="false"
       spacing="0"
       normal_offset="0"
       tang_offset="0"
       prop_units="false"
       vertical_pattern="false"
       fuse_tolerance="0" />
    <inkscape:path-effect
       effect="skeletal"
       id="path-effect4017"
       is_visible="true"
       pattern="M 0,0 0,10 10,5 z"
       copytype="single_stretched"
       prop_scale="1"
       scale_y_rel="false"
       spacing="0"
       normal_offset="0"
       tang_offset="0"
       prop_units="false"
       vertical_pattern="false"
       fuse_tolerance="0" />
    <inkscape:path-effect
       effect="skeletal"
       id="path-effect4013"
       is_visible="true"
       pattern="M 0,0 0,10 10,5 z"
       copytype="single_stretched"
       prop_scale="1"
       scale_y_rel="false"
       spacing="0"
       normal_offset="0"
       tang_offset="0"
       prop_units="false"
       vertical_pattern="false"
       fuse_tolerance="0" />
    <inkscape:path-effect
       effect="skeletal"
       id="path-effect4009"
       is_visible="true"
       pattern="M 0,0 0,10 10,5 z"
       copytype="single_stretched"
       prop_scale="1"
       scale_y_rel="false"
       spacing="0"
       normal_offset="0"
       tang_offset="0"
       prop_units="false"
       vertical_pattern="false"
       fuse_tolerance="0" />
    <inkscape:path-effect
       effect="skeletal"
       id="path-effect4005"
       is_visible="true"
       pattern="M 0,0 0,10 10,5 z"
       copytype="single_stretched"
       prop_scale="1"
       scale_y_rel="false"
       spacing="0"
       normal_offset="0"
       tang_offset="0"
       prop_units="false"
       vertical_pattern="false"
       fuse_tolerance="0" />
    <inkscape:path-effect
       effect="skeletal"
       id="path-effect4001"
       is_visible="true"
       pattern="M 0,0 0,10 10,5 z"
       copytype="single_stretched"
       prop_scale="1"
       scale_y_rel="false"
       spacing="0"
       normal_offset="0"
       tang_offset="0"
       prop_units="false"
       vertical_pattern="false"
       fuse_tolerance="0" />
    <inkscape:path-effect
       effect="skeletal"
       id="path-effect3997"
       is_visible="true"
       pattern="M 0,0 0,10 10,5 z"
       copytype="single_stretched"
       prop_scale="1"
       scale_y_rel="false"
       spacing="0"
       normal_offset="0"
       tang_offset="0"
       prop_units="false"
       vertical_pattern="false"
       fuse_tolerance="0" />
    <inkscape:path-effect
       effect="skeletal"
       id="path-effect3993"
       is_visible="true"
       pattern="M 0,0 0,10 10,5 z"
       copytype="single_stretched"
       prop_scale="1"
       scale_y_rel="false"
       spacing="0"
       normal_offset="0"
       tang_offset="0"
       prop_units="false"
       vertical_pattern="false"
       fuse_tolerance="0" />
    <inkscape:path-effect
       effect="skeletal"
       id="path-effect3989"
       is_visible="true"
       pattern="M 0,0 0,10 10,5 z"
       copytype="single_stretched"
       prop_scale="1"
       scale_y_rel="false"
       spacing="0"
       normal_offset="0"
       tang_offset="0"
       prop_units="false"
       vertical_pattern="false"
       fuse_tolerance="0" />
    <inkscape:path-effect
       effect="skeletal"
       id="path-effect3985"
       is_visible="true"
       pattern="M 0,0 0,10 10,5 z"
       copytype="single_stretched"
       prop_scale="1"
       scale_y_rel="false"
       spacing="0"
       normal_offset="0"
       tang_offset="0"
       prop_units="false"
       vertical_pattern="false"
       fuse_tolerance="0" />
    <inkscape:path-effect
       effect="skeletal"
       id="path-effect3981"
       is_visible="true"
       pattern="M 0,0 0,10 10,5 z"
       copytype="single_stretched"
       prop_scale="1"
       scale_y_rel="false"
       spacing="0"
       normal_offset="0"
       tang_offset="0"
       prop_units="false"
       vertical_pattern="false"
       fuse_tolerance="0" />
    <inkscape:path-effect
       effect="skeletal"
       id="path-effect3977"
       is_visible="true"
       pattern="M 0,0 0,10 10,5 z"
       copytype="single_stretched"
       prop_scale="1"
       scale_y_rel="false"
       spacing="0"
       normal_offset="0"
       tang_offset="0"
       prop_units="false"
       vertical_pattern="false"
       fuse_tolerance="0" />
    <inkscape:path-effect
       effect="skeletal"
       id="path-effect3973"
       is_visible="true"
       pattern="M 0,0 0,10 10,5 z"
       copytype="single_stretched"
       prop_scale="1"
       scale_y_rel="false"
       spacing="0"
       normal_offset="0"
       tang_offset="0"
       prop_units="false"
       vertical_pattern="false"
       fuse_tolerance="0" />
    <inkscape:path-effect
       effect="skeletal"
       id="path-effect3969"
       is_visible="true"
       pattern="M 0,0 0,10 10,5 z"
       copytype="single_stretched"
       prop_scale="1"
       scale_y_rel="false"
       spacing="0"
       normal_offset="0"
       tang_offset="0"
       prop_units="false"
       vertical_pattern="false"
       fuse_tolerance="0" />
    <inkscape:path-effect
       effect="skeletal"
       id="path-effect3965"
       is_visible="true"
       pattern="M 0,0 0,10 10,5 z"
       copytype="single_stretched"
       prop_scale="1"
       scale_y_rel="false"
       spacing="0"
       normal_offset="0"
       tang_offset="0"
       prop_units="false"
       vertical_pattern="false"
       fuse_tolerance="0" />
    <inkscape:path-effect
       effect="skeletal"
       id="path-effect3953"
       is_visible="true"
       pattern="M 0,0 0,10 10,5 z"
       copytype="single_stretched"
       prop_scale="1"
       scale_y_rel="false"
       spacing="0"
       normal_offset="0"
       tang_offset="0"
       prop_units="false"
       vertical_pattern="false"
       fuse_tolerance="0" />
    <inkscape:path-effect
       effect="skeletal"
       id="path-effect3949"
       is_visible="true"
       pattern="M 0,0 0,10 10,5 z"
       copytype="single_stretched"
       prop_scale="1"
       scale_y_rel="false"
       spacing="0"
       normal_offset="0"
       tang_offset="0"
       prop_units="false"
       vertical_pattern="false"
       fuse_tolerance="0" />
  </defs>
  <sodipodi:namedview
     id="base"
     pagecolor="#ffffff"
     bordercolor="#666666"
     borderopacity="1.0"
     inkscape:pageopacity="0.0"
     inkscape:pageshadow="2"
     inkscape:zoom="4.93125"
     inkscape:cx="80"
     inkscape:cy="48"
     inkscape:document-units="px"
     inkscape:current-layer="layer1"
     showgrid="false"
     fit-margin-top="0"
     fit-margin-left="0"
     fit-margin-right="0"
     fit-margin-bottom="0"
     inkscape:window-width="1396"
     inkscape:window-height="987"
     inkscape:window-x="0"
     inkscape:window-y="61"
     inkscape:window-maximized="0">
    <inkscape:grid
       type="xygrid"
       id="grid3002"
       empspacing="5"
       visible="true"
       enabled="true"
       snapvisiblegridlinesonly="true" />
  </sodipodi:namedview>
  <metadata
     id="metadata7">
    <rdf:RDF>
      <cc:Work
         rdf:about="">
        <dc:format>image/svg+xml</dc:format>
        <dc:type
           rdf:resource="http://purl.org/dc/dcmitype/StillImage" />
        <dc:title></dc:title>
      </cc:Work>
    </rdf:RDF>
  </metadata>
  <g
     inkscape:label="Ebene 1"
     inkscape:groupmode="layer"
     id="layer1"
     transform="translate(-430,-551.36218)">
    <rect
       style="fill:#00ffff;fill-opacity:1;stroke:none"
       id="rect2996"
       width="160"
       height="100.00005"
       x="0"
       y="-4"
       transform="translate(430,551.36218)" />
    <path
       style="fill:#c17d11;fill-opacity:1;stroke:#e9b96e;stroke-width:2;stroke-miterlimit:4;stroke-dasharray:none"
       d="m 430,582.36218 c 30,-5 130,-5 160,0 l 0,65 c -30,-5 -130,-5 -160,0 z"
       id="path3004"
       inkscape:connector-curvature="0"
       sodipodi:nodetypes="ccccc" />
    <path
       style="fill:#f57900;fill-rule:evenodd;stroke:#ce5c00"
       d="m 117.96632,76.261925 -8.8097,-4.731708 c -0.0858,2.036128 -0.96118,4.453925 -1.77299,7.033014 -0.81292,2.443878 -1.54152,5.199849 -1.32533,7.702929 1.36868,-2.106861 3.31171,-3.422073 5.29094,-4.823145 2.09322,-1.421286 4.36355,-2.861782 6.61708,-5.18109 z"
       id="path3975"
       inkscape:path-effect="#path-effect3977"
       inkscape:original-d="m 113.56147,73.896071 c -2.30952,4.299968 -6.37618,7.862142 -7.50317,12.370089"
       inkscape:connector-curvature="0"
       transform="translate(430,551.36218)" />
    <path
       style="fill:#f57900;fill-rule:evenodd;stroke:#ce5c00"
       d="m 126.80098,77.799559 -9.85038,-1.723326 c 0.29127,3.749034 1.6604,6.761075 3.42734,9.160323 1.63285,2.214305 3.41833,3.874895 4.94525,5.896524 0.009,-2.533452 -0.41454,-5.171204 -0.35921,-7.491829 0.0956,-2.405411 0.66907,-4.579775 1.837,-5.841692 z"
       id="path3979"
       inkscape:path-effect="#path-effect3981"
       inkscape:original-d="m 121.87579,76.937896 c -0.97569,5.576962 1.94701,9.693997 3.4474,14.195184"
       inkscape:connector-curvature="0"
       transform="translate(430,551.36218)" />
    <path
       style="fill:#f57900;fill-rule:evenodd;stroke:#ce5c00"
       d="m 137.14929,76.314648 -9.86258,1.652072 c 0.90452,2.323185 2.16381,3.840051 3.44957,4.871592 0,0 0,0 0,0 1.38277,1.175749 2.74611,2.03062 4.04175,2.814494 0,10e-7 0,10e-7 0,10e-7 1.24542,0.774445 2.43168,1.436985 3.49444,2.27778 0.84951,0.703252 1.69739,1.450142 2.05706,2.594128 0.35967,-1.143986 0.14991,-2.555918 -0.24799,-3.770683 -0.45338,-1.490431 -1.1176,-2.920291 -1.69922,-4.242319 0,0 0,-10e-7 0,-10e-7 -0.61559,-1.409196 -1.18579,-2.738773 -1.45832,-3.955164 0,-1e-6 0,-1e-6 0,-1e-6 -0.20757,-1.12651 -0.24567,-1.976799 0.22529,-2.241899 z"
       id="path3983"
       inkscape:path-effect="#path-effect3985"
       inkscape:original-d="m 132.218,77.140684 c 0.81709,4.877886 8.11153,9.171638 8.11153,13.384031"
       inkscape:connector-curvature="0"
       transform="translate(430,551.36218)" />
    <path
       style="fill:#f57900;fill-rule:evenodd;stroke:#ce5c00"
       d="m 139.19521,66.745892 -1.78712,9.839014 c -0.24286,-0.306971 0.0855,-0.217328 0.88121,-0.02808 0.90776,0.255547 1.85075,0.65023 2.81646,1.130978 0,0 0,1e-6 0,1e-6 2.11012,1.143604 4.09719,2.270615 5.44893,3.944867 0,0 0,0 0,10e-7 1.07111,1.116228 1.63946,3.068631 2.26853,5.088872 0.57225,1.903908 1.05129,4.045848 2.0513,5.831056 -0.27111,-2.028177 0.0839,-3.97457 0.24142,-6.068869 0.20329,-2.08461 0.39156,-4.365267 -0.38293,-6.940224 0,-10e-7 0,-10e-7 0,-2e-6 -0.99027,-3.009766 -2.83817,-5.66908 -4.79834,-7.820596 -0.90597,-1.034484 -1.92691,-2.046828 -3.10229,-2.999434 -0.62919,-0.63715 -1.77363,-1.376235 -3.63717,-1.977581 z"
       id="path3987"
       inkscape:path-effect="#path-effect3989"
       inkscape:original-d="m 138.30165,71.665399 c 2.22372,0.403909 8.24506,4.72841 10.3422,8.922687 1.597,3.193987 1.19472,8.856641 2.23067,11.964512"
       inkscape:connector-curvature="0"
       transform="translate(430,551.36218)" />
    <path
       style="fill:#f57900;fill-rule:evenodd;stroke:#ce5c00"
       d="m 147.00754,60.052152 -8.89468,4.569968 c 2.62347,3.178157 6.0832,4.936074 9.4769,5.410339 3.28974,0.39997 6.23517,-0.171675 8.96284,-1.003308 -2.72767,-0.831633 -5.32392,-1.975915 -7.09122,-3.622181 -1.684,-1.580336 -2.57405,-3.660794 -2.45384,-5.354818 z"
       id="path3991"
       inkscape:path-effect="#path-effect3993"
       inkscape:original-d="m 142.5602,62.337136 c 2.7903,5.430856 8.45323,6.692015 13.9924,6.692015"
       inkscape:connector-curvature="0"
       transform="translate(430,551.36218)" />
    <path
       style="fill:#f57900;fill-rule:evenodd;stroke:#ce5c00"
       d="m 140.83236,52.065753 0.21108,9.997772 c 1.22468,-0.467986 2.96543,-0.808263 4.86475,-1.405056 0,0 0,0 0,0 1.85969,-0.451311 3.97502,-1.651435 5.43474,-3.530996 0.96845,-1.374846 1.17392,-2.687493 2.0344,-3.232864 0.97716,-0.640684 2.40913,-1.018442 3.58084,-1.69689 -1.35313,-0.04724 -2.57741,-0.470693 -4.1251,-0.48016 -1.97738,0.164091 -3.76044,1.346059 -4.86042,2.039632 0,0 0,0 0,0 -0.64077,0.220932 -1.61212,-0.208693 -2.71137,-0.397757 0,0 0,0 0,0 -1.18785,-0.323179 -2.55501,-0.891114 -4.42892,-1.293681 z"
       id="path3995"
       inkscape:path-effect="#path-effect3997"
       inkscape:original-d="m 140.9379,57.064639 c 2.83956,-0.05995 6.64537,0.45222 8.71989,-1.622307 0.85719,-0.857187 2.20864,-2.326556 3.44741,-2.636248 1.29875,-0.32469 2.61633,-0.299204 3.85297,-0.608365"
       inkscape:connector-curvature="0"
       transform="translate(430,551.36218)" />
    <path
       style="fill:#f57900;fill-rule:evenodd;stroke:#ce5c00"
       d="m 137.23973,45.630421 6.1796,7.862098 c 1.85601,-2.460381 3.19188,-4.774042 5.12376,-6.453833 1.77073,-1.690921 4.56367,-2.737979 7.40114,-3.560866 -2.83747,-0.822887 -5.84741,-1.495816 -9.31023,-0.992434 -3.43453,0.570222 -6.67531,2.009498 -9.39427,3.145035 z"
       id="path3999"
       inkscape:path-effect="#path-effect4001"
       inkscape:original-d="m 140.32953,49.56147 c 5.96306,-4.686957 8.18942,-6.08365 15.6147,-6.08365"
       inkscape:connector-curvature="0"
       transform="translate(430,551.36218)" />
    <path
       style="fill:#f57900;fill-rule:evenodd;stroke:#ce5c00"
       d="m 129.45103,43.225694 9.99528,-0.306902 c -0.43958,-1.849524 -0.93103,-3.394524 -1.01435,-4.804653 0.01,-0.71964 -0.18654,-1.323031 -0.12693,-1.544714 0,0 0,0 0,0 -0.0462,-0.421657 0.62372,-0.803768 1.51831,-1.232343 1.34053,-0.546704 2.92845,-0.876482 4.56196,-1.234415 0,0 0,0 0,0 1.01083,-0.206606 1.90957,-0.496537 2.81525,-0.693802 0.84488,-0.149789 1.65292,-0.38504 2.45724,-0.07046 -0.59973,-0.621456 -1.60557,-0.872232 -2.44809,-1.035965 -0.97502,-0.212807 -1.95447,-0.332847 -2.8244,-0.539453 -1.61005,-0.357933 -3.28011,-0.736496 -5.15448,-0.852912 -1.33805,-0.129753 -2.95397,0.07302 -4.73067,1.093398 -1.72851,1.268385 -2.8687,2.944115 -3.36152,4.497114 -0.91691,2.357717 -1.36645,4.717496 -1.6876,6.725109 z"
       id="path4003"
       inkscape:path-effect="#path-effect4005"
       inkscape:original-d="m 134.44867,43.072243 c -0.30427,-9.909564 2.20251,-10.139417 9.93663,-10.139417 1.6094,0 4.15264,-0.340991 5.27249,0.405577"
       inkscape:connector-curvature="0"
       transform="translate(430,551.36218)" />
    <path
       style="fill:#f57900;fill-rule:evenodd;stroke:#ce5c00"
       d="m 120.93264,42.765707 9.99784,0.207496 c -0.5643,-1.612586 -1.08834,-3.737283 -1.99308,-5.840811 0,0 0,0 0,-1e-6 -0.89372,-2.1627 -2.44865,-3.935212 -4.27735,-4.955932 -0.33241,0.103903 -0.70215,-0.424525 -1.15498,-0.991721 -0.36731,-0.498761 -0.82258,-1.207748 -1.42649,-1.496525 0.28878,0.603909 0.13183,1.208396 0.15509,1.910148 -0.0509,0.668267 -0.0782,1.473837 0.50806,2.49641 0.54045,1.34844 0.41243,2.782274 -8.6e-4,3.935443 0,10e-7 0,10e-7 0,10e-7 -0.39851,1.390301 -1.17068,2.818526 -1.80823,4.735492 z"
       id="path4007"
       inkscape:path-effect="#path-effect4009"
       inkscape:original-d="m 125.93156,42.869455 c 0.0783,-3.77276 0.4188,-7.084364 -2.23067,-9.73384 -0.7694,-0.769397 -0.90722,-2.73231 -1.62231,-3.447402"
       inkscape:connector-curvature="0"
       transform="translate(430,551.36218)" />
    <path
       style="fill:#f57900;fill-rule:evenodd;stroke:#ce5c00"
       d="m 114.52502,46.637423 7.40116,-6.724782 c -1.7861,-0.755617 -3.541,-1.764751 -4.91221,-3.291341 -1.39228,-1.50819 -2.4247,-3.657006 -3.24971,-5.919145 -0.82501,2.262139 -1.47875,4.687167 -1.44973,7.474205 0.0788,2.855333 0.8927,5.8006 2.21049,8.461063 z"
       id="path4011"
       inkscape:path-effect="#path-effect4013"
       inkscape:original-d="m 118.2256,43.275032 c -3.54847,-3.90538 -4.46134,-7.573532 -4.46134,-12.572877"
       inkscape:connector-curvature="0"
       transform="translate(430,551.36218)" />
    <path
       style="fill:#f57900;fill-rule:evenodd;stroke:#ce5c00"
       d="m 108.51262,52.937293 6.04194,-7.968376 c -4.97003,-3.310473 -9.99968,-9.022571 -17.322168,-12.432436 -1.90559,-0.758676 -3.45018,-0.888433 -4.516032,-0.775944 -1.580643,0.02787 -3.065551,0.199347 -4.460589,0.424004 -2e-6,0 -4e-6,0 -5e-6,0 -2.422209,0.378282 -4.865684,0.894954 -7.275003,1.629511 -1.480405,0.493647 -2.48099,1.170018 -3.116405,1.763825 -0.970799,0.790641 -1.817719,1.613095 -2.593596,2.41278 -1e-6,1e-6 -3e-6,2e-6 -4e-6,3e-6 -1.496123,1.524863 -2.7223,3.027996 -4.015618,4.240477 -0.320897,0.462248 -1.227089,0.724242 -2.328909,1.105175 -1.384917,0.40957 -2.880765,0.649839 -4.430009,0.828093 -1.563957,0.176494 -3.144108,0.269493 -4.730675,0.281827 -10e-7,0 -3e-6,0 -4e-6,0 -1.222525,0.0043 -2.395517,-0.0063 -3.511062,-0.162236 -3.272611,-0.509276 -6.410971,-0.437411 -8.936068,-1.799476 -2.411308,-1.271214 -4.848087,-2.666851 -7.470235,-3.646563 -2.645685,-0.98566 -5.459433,-1.394914 -8.213197,-1.240999 2.753764,0.153915 5.441677,0.870344 7.843848,2.087413 2.408168,1.215363 4.596022,2.828633 6.89097,4.381173 2.904043,1.895418 6.379037,2.335028 9.314884,3.067444 1.32732,0.332616 2.648795,0.5031 3.914384,0.632211 1e-6,0 1e-6,0 2e-6,0 1.689804,0.176675 3.394735,0.267547 5.106473,0.266752 1.682352,0.0034 3.419334,-0.08586 5.191555,-0.387821 1.30444,-0.161372 2.875783,-0.586058 4.449791,-1.702897 1.751524,-1.324888 3.222309,-2.748606 4.643289,-3.906989 10e-7,-1e-6 2e-6,-2e-6 3e-6,-3e-6 0.804859,-0.654327 1.572104,-1.255225 2.333876,-1.733864 0.674306,-0.365692 1.047885,-0.64269 1.142583,-0.542819 2e-6,0 3e-6,0 4e-6,0 2.112483,-0.395895 4.288868,-0.598821 6.502692,-0.702001 1.250379,-0.05007 2.426321,-0.06091 3.503868,0.05489 0.925255,0.178361 1.444737,0.170112 1.321021,0.302372 5.01027,2.756515 8.701276,8.504054 14.718396,13.524472 z"
       id="path4015"
       inkscape:path-effect="#path-effect4017"
       inkscape:original-d="m 111.53359,48.953105 c -5.58772,-4.23683 -9.6657,-9.801163 -16.020282,-12.978454 -2.708152,-1.354075 -11.097332,0.138085 -13.789607,0.811154 -2.438633,0.609658 -6.83576,5.561274 -8.922687,7.30038 -2.987672,2.489727 -13.268869,2.334819 -16.831432,1.622307 -2.894799,-0.57896 -6.542162,-0.883472 -9.125476,-2.43346 -5.221471,-3.132883 -8.857094,-5.678074 -15.209125,-5.678074"
       inkscape:connector-curvature="0"
       transform="translate(430,551.36218)" />
    <path
       style="fill:#f57900;fill-rule:evenodd;stroke:#ce5c00"
       d="m 108.23741,67.943214 -0.30244,-9.995426 c -2.75559,0.326145 -5.93116,0.255413 -9.379837,0.482465 -5.961237,0.413032 -11.703674,1.570499 -17.237416,3.093695 -3.003196,1.014154 -4.358457,2.632771 -5.177643,3.294978 -4.108364,2.686738 -8.30497,5.173398 -12.768288,7.087848 -4.498827,1.870729 -9.230618,3.485425 -13.954882,2.648677 -1.171738,-0.177905 -2.298578,-0.858195 -3.390805,-1.591392 -1.113289,-0.760977 -2.326157,-1.47407 -3.643336,-1.704236 1.27053,0.416761 2.304546,1.267297 3.286164,2.157416 0.984455,0.903535 2.075844,1.789518 3.469303,2.252912 4.925698,1.575743 10.404254,0.728229 15.309298,-0.642816 0,0 10e-7,0 2e-6,-10e-7 4.959934,-1.334005 9.737928,-3.284263 14.342688,-5.438148 2.216769,-1.024435 3.342673,-2.31056 3.745042,-1.977521 0,0 0,0 1e-6,10e-7 5.420681,-0.667688 10.809746,-0.969527 16.019872,-0.556495 2.907897,0.227052 6.084197,0.754152 9.682277,0.888043 z"
       id="path4023"
       inkscape:path-effect="#path-effect4025"
       inkscape:original-d="m 108.08619,62.945501 c -3.20039,0.09684 -6.33956,-0.202789 -9.531057,-0.202789 -5.792482,0 -11.077766,0.71492 -16.628644,1.825095 -1.45611,0.291222 -3.180154,1.924477 -4.461343,2.636249 -7.196857,3.998253 -19.555252,10.066827 -28.187579,7.908745 -2.914993,-0.728748 -3.93355,-3.112665 -6.894804,-3.852978"
       inkscape:connector-curvature="0"
       transform="translate(430,551.36218)" />
    <path
       style="fill:#f57900;fill-rule:evenodd;stroke:#ce5c00"
       d="m 109.77956,73.013474 0.26344,-9.99653 c -4.01302,0.33088 -7.08632,2.18089 -9.01854,4.628553 -2.056496,2.53669 -3.205549,4.96399 -4.400959,6.90034 -1.029514,1.722757 -2.549764,3.238441 -4.431649,4.049596 0,0 0,0 0,0 -1.96879,0.979578 -4.749588,0.941575 -7.647653,1.068622 -2.605932,0.05289 -5.650304,-0.02708 -8.290772,1.141853 -1.903944,0.903177 -2.90492,2.590046 -4.060778,4.040733 1.450687,-1.155858 2.86323,-2.591565 4.456332,-2.854069 2.434182,-0.522613 4.928399,0.256432 7.655201,0.728072 0,0 10e-7,0 10e-7,0 2.749764,0.570538 5.779637,1.248025 9.258085,0.671249 3.136164,-0.622573 6.039175,-2.25446 8.303852,-4.579507 2.04649,-2.047211 3.59504,-4.059944 5.17026,-5.154967 1.18903,-0.67359 2.34361,-1.091114 2.74318,-0.643945 z"
       id="path4027"
       inkscape:path-effect="#path-effect4029"
       inkscape:original-d="m 109.91128,68.015209 c -2.22358,-0.0586 -4.34747,1.102856 -5.88086,2.636249 -4.041599,4.041597 -5.002246,8.584744 -11.15336,10.342205 -4.70861,1.345317 -12.357088,-0.950679 -16.425856,0.405577 -1.625057,0.541685 -3.145101,2.333947 -4.258555,3.447401"
       inkscape:connector-curvature="0"
       transform="translate(430,551.36218)" />
    <path
       style="fill:#f57900;fill-rule:evenodd;stroke:#ce5c00"
       d="m 108.25443,60.178863 -1.55322,-9.878638 c 0.98456,0.345146 0.853,0.03004 -0.12817,-0.187313 -0.4821,-0.361816 -1.91981,-1.337628 -4.47823,-2.137287 -2.766763,-0.52548 -5.569633,-0.924457 -8.394084,-1.163524 -2.703128,-0.274226 -5.828721,-0.433912 -9.119541,0.223799 -2e-6,1e-6 -4e-6,1e-6 -6e-6,2e-6 -2.65966,0.646126 -4.688556,1.875658 -6.266683,3.116651 -1.635066,1.195031 -2.914138,2.359665 -4.179096,3.091632 -2.603079,1.65218 -6.832879,2.086278 -10.833706,4.289495 -0.510811,0.514742 -1.843006,0.39235 -3.466299,0.526985 -1.41097,0.02538 -3.185554,-0.06468 -5.073991,0.457703 -2.685696,0.872494 -5.652334,1.230671 -8.661094,1.656979 -2.997245,0.412471 -6.08504,0.91216 -8.957481,2.056677 -10e-7,0 -3e-6,10e-7 -4e-6,10e-7 -1.529574,0.635056 -2.519668,1.901133 -3.350457,3.116282 -0.866653,1.244771 -1.571057,2.560566 -2.562964,3.680844 1.120278,-0.991907 2.008265,-2.242513 2.990701,-3.3437 0.97537,-1.076343 2.024751,-2.14444 3.263178,-2.432052 2.831907,-0.756931 5.791075,-0.850981 8.788081,-0.911842 3.010959,-0.04904 6.11162,-0.05495 9.284088,-0.646997 10e-7,0 2e-6,-1e-6 3e-6,-1e-6 1.112535,-0.227857 2.49785,0.09611 4.179142,0.202731 1.417546,0.214526 3.321581,0.41086 5.531517,-0.434772 3.011793,-1.303094 7.063469,-1.156755 11.47301,-3.010885 2.034942,-0.917983 3.688321,-2.039878 5.138045,-2.868643 1.548816,-0.810458 2.854581,-1.49937 3.883851,-1.468066 10e-7,0 10e-7,0 10e-7,0 1.961214,-0.217627 4.222184,0.286235 6.790282,0.763171 2.467616,0.515066 4.911903,1.176292 7.331065,1.947293 0,1e-6 10e-7,1e-6 2e-6,1e-6 -0.303504,-0.23593 0.06553,0.432723 1.54045,1.324925 1.1157,1.126283 3.38684,2.070222 6.83161,2.028549 z"
       id="path4035"
       inkscape:path-effect="#path-effect4037"
       inkscape:original-d="m 107.47782,55.239544 c -2.42554,0.381368 -4.6911,-2.389505 -6.48923,-2.839037 -4.065065,-1.016267 -11.629307,-2.523125 -15.817487,-1.825095 -3.58451,0.597418 -6.704931,3.758042 -9.733841,5.272497 -3.322848,1.661424 -7.723891,1.935456 -11.153358,3.65019 -2.054969,1.027484 -6.900293,0.05207 -9.125476,0.608365 -5.848667,1.462167 -12.129784,0.731052 -17.845374,2.636248 -2.536181,0.845394 -4.254116,4.456905 -6.08365,6.286439"
       inkscape:connector-curvature="0"
       transform="translate(430,551.36218)" />
    <path
       sodipodi:type="arc"
       style="fill:#f57900;fill-opacity:1;stroke:none"
       id="path4039"
       sodipodi:cx="125.12041"
       sodipodi:cy="62.337135"
       sodipodi:rx="19.670469"
       sodipodi:ry="19.062103"
       d="m 144.79088,62.337135 a 19.670469,19.062103 0 1 1 -39.34094,0 19.670469,19.062103 0 1 1 39.34094,0 z"
       transform="matrix(1.0979381,0,0,1.0691489,418.86128,543.88053)" />
    <g
       style="font-size:48px;font-style:normal;font-variant:normal;font-weight:bold;font-stretch:normal;text-align:center;text-anchor:middle;fill:#ce5c00;fill-opacity:1;stroke:none;font-family:Symbola;-inkscape-font-specification:Symbola Bold"
       id="text3916"
       transform="translate(0.81115374,-2.636249)">
      <path
         d="m 565.72266,606.3817 c -0.16411,0.2344 -0.37505,0.35159 -0.63282,0.35157 -0.58598,2e-5 -1.45316,-0.1992 -2.60156,-0.59766 -1.12504,-0.42185 -1.98051,-0.63279 -2.56641,-0.63281 -0.18753,2e-5 -0.46878,0.0469 -0.84375,0.14062 -0.3516,0.0938 -0.62113,0.14065 -0.80859,0.14063 l -2.07422,0 0,-0.5625 c 0.32809,-0.65622 1.18356,-0.98435 2.56641,-0.98438 0.9609,3e-5 2.13277,0.19925 3.51562,0.59766 1.1484,0.32815 2.29684,0.65628 3.44532,0.98437 l 0,0.5625 m -0.8086,3.30469 -0.8789,0 c -0.32817,-0.35154 -0.72661,-0.60935 -1.19532,-0.77344 l -1.96875,0.10547 c 0.16403,0.0469 0.41012,0.18753 0.73828,0.42188 0.14059,0.67971 0.2109,0.98439 0.21094,0.91406 -4e-5,1.12502 -0.55082,1.68752 -1.65234,1.6875 -0.37504,2e-5 -0.75004,-0.1992 -1.125,-0.59766 -0.3516,-0.39841 -0.52738,-0.78513 -0.52735,-1.16015 -3e-5,-0.30467 0.11715,-0.5742 0.35157,-0.8086 l 0.14062,-0.0352 c -0.0469,-0.0234 -0.1055,-0.0351 -0.17578,-0.0352 -0.49222,2e-5 -0.92582,0.30471 -1.30078,0.91406 -0.18754,-0.16404 -0.4805,-0.37497 -0.87891,-0.63281 0.0234,-0.42185 0.52731,-0.91404 1.51172,-1.47656 0.98434,-0.56248 1.7109,-0.84373 2.17969,-0.84375 0.67965,2e-5 2.20308,0.52737 4.57031,1.58203 l 0,0.73828 m -11.10937,-4.07812 c -0.51566,0.11721 -0.71488,0.1758 -0.59766,0.17578 -0.0703,2e-5 -0.39847,-0.11716 -0.98437,-0.35156 -0.58597,-0.25779 -0.98441,-0.39842 -1.19532,-0.42188 l -7.3125,1.89844 -0.35156,-0.21094 c 0.0937,-0.16404 0.21092,-0.43357 0.35156,-0.80859 3.5156,-1.10154 5.97654,-1.65232 7.38282,-1.65235 0.18747,3e-5 0.60934,0.11722 1.26562,0.35157 0.74997,0.25784 1.23044,0.41018 1.44141,0.45703 l 0,0.5625 m 4.57031,9.77343 c -4e-5,0.4219 -0.30472,0.78518 -0.91406,1.08985 -0.49223,0.18751 -0.97269,0.37501 -1.44141,0.5625 -3e-5,0.0469 -0.0118,0.10548 -0.0352,0.17578 -3e-5,0.1172 0.0234,0.28126 0.0703,0.49219 0.0468,0.21095 0.0703,0.37501 0.0703,0.49218 -0.0938,0.0938 -0.5391,0.39846 -1.33594,0.91407 l 0,-3.09375 c 1.3359,-0.53905 2.19137,-0.80858 2.56641,-0.8086 0.44527,2e-5 0.78512,0.0586 1.01953,0.17578 m -5.34375,-5.69531 -0.98438,0 c -0.16409,2e-5 -0.49221,-0.25779 -0.98437,-0.77344 l -0.66797,0.10547 c 0.72653,0.28128 1.08981,0.75003 1.08984,1.40625 -3e-5,1.07815 -0.52737,1.61721 -1.58203,1.61719 -1.00784,2e-5 -1.51174,-0.67967 -1.51172,-2.03906 -2e-5,-0.42185 0.0586,-0.74998 0.17579,-0.98438 l 0.14062,-0.0703 c -0.0469,-0.0234 -0.11721,-0.0351 -0.21094,-0.0352 -0.30471,3e-5 -0.7383,0.12893 -1.30078,0.38672 -0.56252,0.25784 -0.99612,0.38674 -1.30078,0.38672 l -1.44141,0 0.21094,-0.52734 c 0.93748,-0.37498 1.87498,-0.73826 2.8125,-1.08985 1.19529,-0.46872 2.14451,-0.7031 2.84766,-0.70312 0.32809,2e-5 0.72653,0.22268 1.19531,0.66797 0.5156,0.51565 1.0195,0.82033 1.51172,0.91406 l 0,0.73828 m 0.31641,6.22266 c -0.0938,0.0469 -0.26957,0.19923 -0.52735,0.45703 -0.25784,0.25783 -0.4805,0.38673 -0.66797,0.38672 l -0.63281,0 0,-1.54688 0.94922,0 c 0.11716,2e-5 0.41012,0.23439 0.87891,0.70313 m 6.89062,4.67578 c -0.46879,0.58595 -0.83207,0.87892 -1.08984,0.87891 -0.30473,10e-6 -0.75004,-0.1289 -1.33594,-0.38672 -0.58597,-0.28124 -1.03129,-0.42187 -1.33594,-0.42188 -0.11722,10e-6 -0.36331,0.14064 -0.73828,0.42188 -0.3516,0.25782 -0.62113,0.38673 -0.80859,0.38672 -0.1641,10e-6 -0.4805,-0.1289 -0.94922,-0.38672 -0.44535,-0.28124 -0.75003,-0.42187 -0.91406,-0.42188 -0.30472,10e-6 -0.75004,0.14064 -1.33594,0.42188 -0.58597,0.25782 -1.03128,0.38673 -1.33594,0.38672 -0.37503,10e-6 -0.78518,-0.23437 -1.23047,-0.70313 l 0,-0.87891 c 0.79685,0.51564 1.31247,0.77345 1.54688,0.77344 -0.0235,10e-6 0.32809,-0.2578 1.05468,-0.77344 0.74997,-0.51561 1.33591,-0.77342 1.75782,-0.77343 0.11715,10e-6 0.2695,0.1172 0.45703,0.35156 0.18747,0.21095 0.31637,0.33986 0.38672,0.38672 0.0937,0.0235 0.67965,0.0352 1.75781,0.0352 0.25778,2e-5 0.62106,0.082 1.08984,0.2461 0.46872,0.14063 0.832,0.21095 1.08985,0.21094 0.14058,10e-6 0.32808,-0.0703 0.5625,-0.21094 0.25777,-0.16405 0.45699,-0.24608 0.59765,-0.2461 0.28121,2e-5 0.53903,0.23439 0.77344,0.70313 m -3.26946,3.02352 c -1.2891,0.65625 -1.92191,0.98438 -1.89844,0.98437 -0.14066,10e-6 -0.86722,-0.32812 -2.17969,-0.98437 0.0234,-0.49218 0.21091,-0.73828 0.5625,-0.73828 0.11716,0 0.25778,0.0586 0.42188,0.17578 0.16403,0.0938 0.30465,0.14063 0.42187,0.14062 0.58591,10e-6 1.24216,-0.26952 1.96875,-0.80859 l 0.70313,0.70312 0,0.52735"
         style="font-size:72px;fill:#ce5c00;stroke:none"
         id="path3925"
         inkscape:connector-curvature="0"
         sodipodi:nodetypes="ccccccccccccccccccccccccccsccccccccccccccccccccccccccccccccccccccccccccccccccccccccccccccccccccccccccccsccccc" />
    </g>
  </g>
</svg>
